G04 start of page 11 for group -4014 idx -4014 *
G04 Title: (unknown), bottompaste *
G04 Creator: pcb 1.99z *
G04 CreationDate: Sun 31 May 2020 07:54:01 PM GMT UTC *
G04 For: mark *
G04 Format: Gerber/RS-274X *
G04 PCB-Dimensions (mil): 2200.00 2300.00 *
G04 PCB-Coordinate-Origin: lower left *
%MOIN*%
%FSLAX25Y25*%
%LNBOTTOMPASTE*%
%ADD92R,0.0690X0.0690*%
%ADD91R,0.0295X0.0295*%
%ADD90R,0.1220X0.1220*%
%ADD89R,0.0560X0.0560*%
G54D89*X119300Y44000D02*X125900D01*
X119300Y53000D02*X125900D01*
X119300Y62100D02*X125900D01*
G54D90*X147000Y57500D02*Y48500D01*
G54D89*X120300Y84000D02*X126900D01*
X120300Y93000D02*X126900D01*
X120300Y102100D02*X126900D01*
G54D90*X148000Y97500D02*Y88500D01*
G54D91*X102441Y93492D02*Y92508D01*
X107559Y93492D02*Y92508D01*
X102441Y53492D02*Y52508D01*
X107559Y53492D02*Y52508D01*
X102441Y62492D02*Y61508D01*
X107559Y62492D02*Y61508D01*
X102441Y102492D02*Y101508D01*
X107559Y102492D02*Y101508D01*
G54D92*X82500Y156600D02*Y155400D01*
X71500Y156600D02*Y155400D01*
X82500Y40600D02*Y39400D01*
X71500Y40600D02*Y39400D01*
G54D89*X120300Y173000D02*X126900D01*
X120300Y182000D02*X126900D01*
X120300Y191100D02*X126900D01*
G54D90*X148000Y186500D02*Y177500D01*
G54D91*X102441Y182492D02*Y181508D01*
X107559Y182492D02*Y181508D01*
X102441Y192492D02*Y191508D01*
X107559Y192492D02*Y191508D01*
G54D92*X82500Y79600D02*Y78400D01*
X71500Y79600D02*Y78400D01*
M02*
