G04 start of page 10 for group -4015 idx -4015 *
G04 Title: (unknown), toppaste *
G04 Creator: pcb 1.99z *
G04 CreationDate: Sun 31 May 2020 07:54:01 PM GMT UTC *
G04 For: mark *
G04 Format: Gerber/RS-274X *
G04 PCB-Dimensions (mil): 2200.00 2300.00 *
G04 PCB-Coordinate-Origin: lower left *
%MOIN*%
%FSLAX25Y25*%
%LNTOPPASTE*%
%ADD88R,0.0440X0.0440*%
%ADD87R,0.0787X0.0787*%
%ADD86C,0.0060*%
%ADD85C,0.0001*%
%ADD84R,0.0110X0.0110*%
%ADD83R,0.0512X0.0512*%
%ADD82R,0.0295X0.0295*%
%ADD81R,0.0197X0.0197*%
G54D81*X126574Y104393D02*Y103607D01*
X123426Y104393D02*Y103607D01*
G54D82*X127559Y98492D02*Y97508D01*
X122441Y98492D02*Y97508D01*
X126559Y126492D02*Y125508D01*
X121441Y126492D02*Y125508D01*
G54D81*X126574Y120393D02*Y119607D01*
X123426Y120393D02*Y119607D01*
G54D82*X173559Y147492D02*Y146508D01*
X168441Y147492D02*Y146508D01*
G54D83*X164457Y163393D02*Y162607D01*
X171543Y163393D02*Y162607D01*
G54D82*X150508Y145000D02*X151492D01*
X150508Y150118D02*X151492D01*
G54D81*X174000Y137393D02*Y136607D01*
X170852Y137393D02*Y136607D01*
X144607Y150574D02*X145393D01*
X144607Y147426D02*X145393D01*
X138607D02*X139393D01*
X138607Y150574D02*X139393D01*
G54D82*X132508Y150559D02*X133492D01*
X132508Y145441D02*X133492D01*
X125508Y150559D02*X126492D01*
X125508Y145441D02*X126492D01*
X192508Y125441D02*X193492D01*
X192508Y130559D02*X193492D01*
G54D81*X192607Y109574D02*X193393D01*
X192607Y106426D02*X193393D01*
G54D83*X192543Y153393D02*Y152607D01*
X185457Y153393D02*Y152607D01*
G54D82*X169508Y98559D02*X170492D01*
X169508Y93441D02*X170492D01*
G54D81*X151607Y81074D02*X152393D01*
X151607Y77926D02*X152393D01*
X157574Y72893D02*Y72107D01*
X154426Y72893D02*Y72107D01*
X75574Y201393D02*Y200607D01*
X72426Y201393D02*Y200607D01*
G54D82*X91559Y201492D02*Y200508D01*
X86441Y201492D02*Y200508D01*
X162441Y153492D02*Y152508D01*
X167559Y153492D02*Y152508D01*
G54D81*X161426Y141393D02*Y140607D01*
X164574Y141393D02*Y140607D01*
X135607Y45574D02*X136393D01*
X135607Y42426D02*X136393D01*
X135607Y35574D02*X136393D01*
X135607Y32426D02*X136393D01*
X109426Y189393D02*Y188607D01*
X112574Y189393D02*Y188607D01*
Y198393D02*Y197607D01*
X109426Y198393D02*Y197607D01*
X115607Y45574D02*X116393D01*
X115607Y42426D02*X116393D01*
X115607Y35574D02*X116393D01*
X115607Y32426D02*X116393D01*
X125607Y45574D02*X126393D01*
X125607Y42426D02*X126393D01*
X125607Y35574D02*X126393D01*
X125607Y32426D02*X126393D01*
X182607Y72426D02*X183393D01*
X182607Y75574D02*X183393D01*
G54D83*X185457Y83393D02*Y82607D01*
X192543Y83393D02*Y82607D01*
G54D81*X182607Y163574D02*X183393D01*
X182607Y160426D02*X183393D01*
G54D83*X179500Y118393D02*Y117607D01*
X186586Y118393D02*Y117607D01*
G54D81*X142074Y139893D02*Y139107D01*
X138926Y139893D02*Y139107D01*
X81707Y152526D02*X82493D01*
X81707Y155674D02*X82493D01*
G54D82*X126559Y112492D02*Y111508D01*
X121441Y112492D02*Y111508D01*
G54D81*X155926Y98893D02*Y98107D01*
X159074Y98893D02*Y98107D01*
X155926Y93893D02*Y93107D01*
X159074Y93893D02*Y93107D01*
X154426Y85893D02*Y85107D01*
X157574Y85893D02*Y85107D01*
G54D83*X163607Y74957D02*X164393D01*
X163607Y82043D02*X164393D01*
G54D81*X175607Y99074D02*X176393D01*
X175607Y95926D02*X176393D01*
G54D84*X144111Y108378D02*Y106725D01*
X146079Y108378D02*Y106725D01*
X148048Y108378D02*Y106725D01*
X150016Y108378D02*Y106725D01*
X151984Y108378D02*Y106725D01*
X153952Y108378D02*Y106725D01*
X155921Y108378D02*Y106725D01*
X157889Y108378D02*Y106725D01*
X159622Y110111D02*X161275D01*
X159622Y112079D02*X161275D01*
X159622Y114048D02*X161275D01*
X159622Y116016D02*X161275D01*
X159622Y117984D02*X161275D01*
X159622Y119952D02*X161275D01*
X159622Y121921D02*X161275D01*
X159622Y123889D02*X161275D01*
X157889Y127275D02*Y125622D01*
X155921Y127275D02*Y125622D01*
X153952Y127275D02*Y125622D01*
X151984Y127275D02*Y125622D01*
X150016Y127275D02*Y125622D01*
X148048Y127275D02*Y125622D01*
X146079Y127275D02*Y125622D01*
X144111Y127275D02*Y125622D01*
X140725Y123889D02*X142378D01*
X140725Y121921D02*X142378D01*
X140725Y119952D02*X142378D01*
X140725Y117984D02*X142378D01*
X140725Y116016D02*X142378D01*
X140725Y114048D02*X142378D01*
X140725Y112079D02*X142378D01*
X140725Y110111D02*X142378D01*
G54D85*G36*
X144898Y123102D02*Y110898D01*
X157102D01*
Y123102D01*
X144898D01*
G37*
G54D86*X90000Y155700D02*X91100D01*
G54D87*X105874Y149575D02*Y146425D01*
Y169575D02*Y166425D01*
X90126Y149575D02*Y146425D01*
Y169575D02*Y166425D01*
G54D88*X94700Y162600D02*Y161800D01*
X101300Y162600D02*Y161800D01*
X94700Y154200D02*Y153400D01*
X101300Y154200D02*Y153400D01*
M02*
