M48
INCH
T48C0.012
T47C0.118
T46C0.067
T45C0.040
%
T48
X005300Y020100
X006350Y006500
X006350Y005500
X008350Y006500
X008350Y005500
X009900Y019200
X009900Y018200
X009900Y010200
X009900Y009300
X009900Y006200
X009900Y005300
X011100Y020250
X011200Y008300
X011200Y007300
X011250Y004550
X011300Y018200
X011300Y011600
X011300Y009300
X011500Y010500
X011500Y009800
X011800Y012600
X012000Y012000
X012200Y020250
X012200Y016350
X012250Y004550
X012450Y007300
X012600Y015500
X013250Y004550
X013300Y015500
X013500Y008300
X013500Y007300
X013500Y006300
X013600Y013950
X013900Y015500
X014500Y015500
X014600Y012200
X014600Y011700
X014600Y011200
X014800Y009300
X015100Y015500
X015100Y012200
X015100Y011700
X015100Y011200
X015600Y012200
X015600Y011700
X015600Y011200
X015800Y015700
X015800Y008150
X016193Y009850
X016193Y009350
X016250Y008950
X016300Y014700
X016500Y010450
X016550Y013650
X016550Y008650
X016900Y014150
X017000Y010450
X017100Y008950
X017150Y015300
X017500Y015700
X017650Y009250
X018500Y012400
X018500Y011200
X019300Y014800
X019300Y013280
X019300Y010470
X019300Y008900
X019700Y011800
T45
X005600Y002200
X006600Y002200
X007600Y002200
X008600Y021200
X008600Y002200
X009600Y021200
X010600Y021200
X010600Y002200
X011600Y021200
X011600Y002200
X012600Y021200
X012600Y002200
X013600Y021200
X013600Y002200
X014600Y021200
X014600Y002200
X015600Y021200
X015600Y002200
T46
X017300Y019600
X017300Y017600
X017300Y006000
X017300Y004000
X018300Y018600
X018300Y005000
X019300Y019600
X019300Y017600
X019300Y006000
X019300Y004000
T47
X006580Y012700
X007800Y010810
X008981Y012700
M30
