G04 start of page 3 for group 1 idx 1 *
G04 Title: (unknown), bottom *
G04 Creator: pcb 1.99z *
G04 CreationDate: Sun 31 May 2020 07:54:01 PM GMT UTC *
G04 For: mark *
G04 Format: Gerber/RS-274X *
G04 PCB-Dimensions (mil): 2200.00 2300.00 *
G04 PCB-Coordinate-Origin: lower left *
%MOIN*%
%FSLAX25Y25*%
%LNBOTTOM*%
%ADD43C,0.0240*%
%ADD42R,0.0295X0.0295*%
%ADD41R,0.0690X0.0690*%
%ADD40R,0.0560X0.0560*%
%ADD39R,0.1220X0.1220*%
%ADD38C,0.1772*%
%ADD37C,0.1000*%
%ADD36C,0.0800*%
%ADD35C,0.0080*%
%ADD34C,0.0001*%
%ADD33C,0.0120*%
%ADD32C,0.1181*%
%ADD31C,0.0670*%
%ADD30C,0.0400*%
G54D30*G54D31*G54D30*G54D32*G54D30*G54D31*G54D33*G54D34*G36*
X154997Y170194D02*X155164Y170336D01*
X155317Y170516D01*
X155441Y170717D01*
X155531Y170935D01*
X155586Y171165D01*
X155600Y171400D01*
X155594Y181000D01*
X156086D01*
X157000Y180086D01*
Y158498D01*
X156939Y158461D01*
X156723Y158277D01*
X156539Y158061D01*
X156391Y157820D01*
X156283Y157558D01*
X156217Y157282D01*
X156194Y157000D01*
X156217Y156718D01*
X156283Y156442D01*
X156391Y156180D01*
X156539Y155939D01*
X156723Y155723D01*
X156939Y155539D01*
X157000Y155502D01*
Y152914D01*
X154997Y150911D01*
Y170194D01*
G37*
G36*
X196522Y225000D02*X200000D01*
Y9000D01*
X196522D01*
Y34537D01*
X196730Y34669D01*
X197181Y35015D01*
X197601Y35399D01*
X197985Y35819D01*
X198331Y36270D01*
X198636Y36750D01*
X198898Y37254D01*
X199116Y37779D01*
X199286Y38322D01*
X199308Y38439D01*
X199311Y38557D01*
X199296Y38675D01*
X199262Y38789D01*
X199211Y38896D01*
X199143Y38994D01*
X199062Y39080D01*
X198967Y39152D01*
X198863Y39209D01*
X198751Y39248D01*
X198634Y39270D01*
X198515Y39273D01*
X198397Y39257D01*
X198283Y39224D01*
X198176Y39172D01*
X198078Y39105D01*
X197992Y39023D01*
X197920Y38929D01*
X197864Y38824D01*
X197826Y38712D01*
X197700Y38294D01*
X197533Y37890D01*
X197331Y37502D01*
X197097Y37133D01*
X196831Y36787D01*
X196536Y36464D01*
X196522Y36452D01*
Y43548D01*
X196536Y43536D01*
X196831Y43213D01*
X197097Y42867D01*
X197331Y42498D01*
X197533Y42110D01*
X197700Y41706D01*
X197831Y41290D01*
X197868Y41178D01*
X197924Y41074D01*
X197996Y40980D01*
X198081Y40899D01*
X198179Y40832D01*
X198285Y40781D01*
X198398Y40747D01*
X198515Y40732D01*
X198633Y40735D01*
X198749Y40756D01*
X198861Y40795D01*
X198965Y40852D01*
X199058Y40924D01*
X199140Y41009D01*
X199207Y41106D01*
X199258Y41213D01*
X199291Y41326D01*
X199307Y41443D01*
X199304Y41561D01*
X199280Y41676D01*
X199116Y42221D01*
X198898Y42746D01*
X198636Y43250D01*
X198331Y43730D01*
X197985Y44181D01*
X197601Y44601D01*
X197181Y44985D01*
X196730Y45331D01*
X196522Y45463D01*
Y54537D01*
X196730Y54669D01*
X197181Y55015D01*
X197601Y55399D01*
X197985Y55819D01*
X198331Y56270D01*
X198636Y56750D01*
X198898Y57254D01*
X199116Y57779D01*
X199286Y58322D01*
X199308Y58439D01*
X199311Y58557D01*
X199296Y58675D01*
X199262Y58789D01*
X199211Y58896D01*
X199143Y58994D01*
X199062Y59080D01*
X198967Y59152D01*
X198863Y59209D01*
X198751Y59248D01*
X198634Y59270D01*
X198515Y59273D01*
X198397Y59257D01*
X198283Y59224D01*
X198176Y59172D01*
X198078Y59105D01*
X197992Y59023D01*
X197920Y58929D01*
X197864Y58824D01*
X197826Y58712D01*
X197700Y58294D01*
X197533Y57890D01*
X197331Y57502D01*
X197097Y57133D01*
X196831Y56787D01*
X196536Y56464D01*
X196522Y56452D01*
Y63548D01*
X196536Y63536D01*
X196831Y63213D01*
X197097Y62867D01*
X197331Y62498D01*
X197533Y62110D01*
X197700Y61706D01*
X197831Y61290D01*
X197868Y61178D01*
X197924Y61074D01*
X197996Y60980D01*
X198081Y60899D01*
X198179Y60832D01*
X198285Y60781D01*
X198398Y60747D01*
X198515Y60732D01*
X198633Y60735D01*
X198749Y60756D01*
X198861Y60795D01*
X198965Y60852D01*
X199058Y60924D01*
X199140Y61009D01*
X199207Y61106D01*
X199258Y61213D01*
X199291Y61326D01*
X199307Y61443D01*
X199304Y61561D01*
X199280Y61676D01*
X199116Y62221D01*
X198898Y62746D01*
X198636Y63250D01*
X198331Y63730D01*
X197985Y64181D01*
X197601Y64601D01*
X197181Y64985D01*
X196730Y65331D01*
X196522Y65463D01*
Y116264D01*
X196718Y116217D01*
X197000Y116194D01*
X197282Y116217D01*
X197558Y116283D01*
X197820Y116391D01*
X198061Y116539D01*
X198277Y116723D01*
X198461Y116939D01*
X198609Y117180D01*
X198717Y117442D01*
X198783Y117718D01*
X198800Y118000D01*
X198783Y118282D01*
X198717Y118558D01*
X198609Y118820D01*
X198461Y119061D01*
X198277Y119277D01*
X198061Y119461D01*
X197820Y119609D01*
X197558Y119717D01*
X197282Y119783D01*
X197000Y119806D01*
X196718Y119783D01*
X196522Y119736D01*
Y170537D01*
X196730Y170669D01*
X197181Y171015D01*
X197601Y171399D01*
X197985Y171819D01*
X198331Y172270D01*
X198636Y172750D01*
X198898Y173254D01*
X199116Y173779D01*
X199286Y174322D01*
X199308Y174439D01*
X199311Y174557D01*
X199296Y174675D01*
X199262Y174789D01*
X199211Y174896D01*
X199143Y174994D01*
X199062Y175080D01*
X198967Y175152D01*
X198863Y175209D01*
X198751Y175248D01*
X198634Y175270D01*
X198515Y175273D01*
X198397Y175257D01*
X198283Y175224D01*
X198176Y175172D01*
X198078Y175105D01*
X197992Y175023D01*
X197920Y174929D01*
X197864Y174824D01*
X197826Y174712D01*
X197700Y174294D01*
X197533Y173890D01*
X197331Y173502D01*
X197097Y173133D01*
X196831Y172787D01*
X196536Y172464D01*
X196522Y172452D01*
Y179548D01*
X196536Y179536D01*
X196831Y179213D01*
X197097Y178867D01*
X197331Y178498D01*
X197533Y178110D01*
X197700Y177706D01*
X197831Y177290D01*
X197868Y177178D01*
X197924Y177074D01*
X197996Y176980D01*
X198081Y176899D01*
X198179Y176832D01*
X198285Y176781D01*
X198398Y176747D01*
X198515Y176732D01*
X198633Y176735D01*
X198749Y176756D01*
X198861Y176795D01*
X198965Y176852D01*
X199058Y176924D01*
X199140Y177009D01*
X199207Y177106D01*
X199258Y177213D01*
X199291Y177326D01*
X199307Y177443D01*
X199304Y177561D01*
X199280Y177676D01*
X199116Y178221D01*
X198898Y178746D01*
X198636Y179250D01*
X198331Y179730D01*
X197985Y180181D01*
X197601Y180601D01*
X197181Y180985D01*
X196730Y181331D01*
X196522Y181463D01*
Y190537D01*
X196730Y190669D01*
X197181Y191015D01*
X197601Y191399D01*
X197985Y191819D01*
X198331Y192270D01*
X198636Y192750D01*
X198898Y193254D01*
X199116Y193779D01*
X199286Y194322D01*
X199308Y194439D01*
X199311Y194557D01*
X199296Y194675D01*
X199262Y194789D01*
X199211Y194896D01*
X199143Y194994D01*
X199062Y195080D01*
X198967Y195152D01*
X198863Y195209D01*
X198751Y195248D01*
X198634Y195270D01*
X198515Y195273D01*
X198397Y195257D01*
X198283Y195224D01*
X198176Y195172D01*
X198078Y195105D01*
X197992Y195023D01*
X197920Y194929D01*
X197864Y194824D01*
X197826Y194712D01*
X197700Y194294D01*
X197533Y193890D01*
X197331Y193502D01*
X197097Y193133D01*
X196831Y192787D01*
X196536Y192464D01*
X196522Y192452D01*
Y199548D01*
X196536Y199536D01*
X196831Y199213D01*
X197097Y198867D01*
X197331Y198498D01*
X197533Y198110D01*
X197700Y197706D01*
X197831Y197290D01*
X197868Y197178D01*
X197924Y197074D01*
X197996Y196980D01*
X198081Y196899D01*
X198179Y196832D01*
X198285Y196781D01*
X198398Y196747D01*
X198515Y196732D01*
X198633Y196735D01*
X198749Y196756D01*
X198861Y196795D01*
X198965Y196852D01*
X199058Y196924D01*
X199140Y197009D01*
X199207Y197106D01*
X199258Y197213D01*
X199291Y197326D01*
X199307Y197443D01*
X199304Y197561D01*
X199280Y197676D01*
X199116Y198221D01*
X198898Y198746D01*
X198636Y199250D01*
X198331Y199730D01*
X197985Y200181D01*
X197601Y200601D01*
X197181Y200985D01*
X196730Y201331D01*
X196522Y201463D01*
Y225000D01*
G37*
G36*
Y9000D02*X189478D01*
Y34537D01*
X189750Y34364D01*
X190254Y34102D01*
X190779Y33884D01*
X191322Y33714D01*
X191439Y33692D01*
X191557Y33689D01*
X191675Y33704D01*
X191789Y33738D01*
X191896Y33789D01*
X191994Y33857D01*
X192080Y33938D01*
X192152Y34033D01*
X192209Y34137D01*
X192248Y34249D01*
X192270Y34366D01*
X192273Y34485D01*
X192257Y34603D01*
X192224Y34717D01*
X192172Y34824D01*
X192105Y34922D01*
X192023Y35008D01*
X191929Y35080D01*
X191824Y35136D01*
X191712Y35174D01*
X191294Y35300D01*
X190890Y35467D01*
X190502Y35669D01*
X190133Y35903D01*
X189787Y36169D01*
X189478Y36452D01*
Y43548D01*
X189787Y43831D01*
X190133Y44097D01*
X190502Y44331D01*
X190890Y44533D01*
X191294Y44700D01*
X191710Y44831D01*
X191822Y44868D01*
X191926Y44924D01*
X192020Y44996D01*
X192101Y45081D01*
X192168Y45179D01*
X192219Y45285D01*
X192253Y45398D01*
X192268Y45515D01*
X192265Y45633D01*
X192244Y45749D01*
X192205Y45861D01*
X192148Y45965D01*
X192076Y46058D01*
X191991Y46140D01*
X191894Y46207D01*
X191787Y46258D01*
X191674Y46291D01*
X191557Y46307D01*
X191439Y46304D01*
X191324Y46280D01*
X190779Y46116D01*
X190254Y45898D01*
X189750Y45636D01*
X189478Y45463D01*
Y49633D01*
X189500Y50000D01*
X189478Y50367D01*
Y54537D01*
X189750Y54364D01*
X190254Y54102D01*
X190779Y53884D01*
X191322Y53714D01*
X191439Y53692D01*
X191557Y53689D01*
X191675Y53704D01*
X191789Y53738D01*
X191896Y53789D01*
X191994Y53857D01*
X192080Y53938D01*
X192152Y54033D01*
X192209Y54137D01*
X192248Y54249D01*
X192270Y54366D01*
X192273Y54485D01*
X192257Y54603D01*
X192224Y54717D01*
X192172Y54824D01*
X192105Y54922D01*
X192023Y55008D01*
X191929Y55080D01*
X191824Y55136D01*
X191712Y55174D01*
X191294Y55300D01*
X190890Y55467D01*
X190502Y55669D01*
X190133Y55903D01*
X189787Y56169D01*
X189478Y56452D01*
Y63548D01*
X189787Y63831D01*
X190133Y64097D01*
X190502Y64331D01*
X190890Y64533D01*
X191294Y64700D01*
X191710Y64831D01*
X191822Y64868D01*
X191926Y64924D01*
X192020Y64996D01*
X192101Y65081D01*
X192168Y65179D01*
X192219Y65285D01*
X192253Y65398D01*
X192268Y65515D01*
X192265Y65633D01*
X192244Y65749D01*
X192205Y65861D01*
X192148Y65965D01*
X192076Y66058D01*
X191991Y66140D01*
X191894Y66207D01*
X191787Y66258D01*
X191674Y66291D01*
X191557Y66307D01*
X191439Y66304D01*
X191324Y66280D01*
X190779Y66116D01*
X190254Y65898D01*
X189750Y65636D01*
X189478Y65463D01*
Y117000D01*
X195502D01*
X195539Y116939D01*
X195723Y116723D01*
X195939Y116539D01*
X196180Y116391D01*
X196442Y116283D01*
X196522Y116264D01*
Y65463D01*
X196250Y65636D01*
X195746Y65898D01*
X195221Y66116D01*
X194678Y66286D01*
X194561Y66308D01*
X194443Y66311D01*
X194325Y66296D01*
X194211Y66262D01*
X194104Y66211D01*
X194006Y66143D01*
X193920Y66062D01*
X193848Y65967D01*
X193791Y65863D01*
X193752Y65751D01*
X193730Y65634D01*
X193727Y65515D01*
X193743Y65397D01*
X193776Y65283D01*
X193828Y65176D01*
X193895Y65078D01*
X193977Y64992D01*
X194071Y64920D01*
X194176Y64864D01*
X194288Y64826D01*
X194706Y64700D01*
X195110Y64533D01*
X195498Y64331D01*
X195867Y64097D01*
X196213Y63831D01*
X196522Y63548D01*
Y56452D01*
X196213Y56169D01*
X195867Y55903D01*
X195498Y55669D01*
X195110Y55467D01*
X194706Y55300D01*
X194290Y55169D01*
X194178Y55132D01*
X194074Y55076D01*
X193980Y55004D01*
X193899Y54919D01*
X193832Y54821D01*
X193781Y54715D01*
X193747Y54602D01*
X193732Y54485D01*
X193735Y54367D01*
X193756Y54251D01*
X193795Y54139D01*
X193852Y54035D01*
X193924Y53942D01*
X194009Y53860D01*
X194106Y53793D01*
X194213Y53742D01*
X194326Y53709D01*
X194443Y53693D01*
X194561Y53696D01*
X194676Y53720D01*
X195221Y53884D01*
X195746Y54102D01*
X196250Y54364D01*
X196522Y54537D01*
Y45463D01*
X196250Y45636D01*
X195746Y45898D01*
X195221Y46116D01*
X194678Y46286D01*
X194561Y46308D01*
X194443Y46311D01*
X194325Y46296D01*
X194211Y46262D01*
X194104Y46211D01*
X194006Y46143D01*
X193920Y46062D01*
X193848Y45967D01*
X193791Y45863D01*
X193752Y45751D01*
X193730Y45634D01*
X193727Y45515D01*
X193743Y45397D01*
X193776Y45283D01*
X193828Y45176D01*
X193895Y45078D01*
X193977Y44992D01*
X194071Y44920D01*
X194176Y44864D01*
X194288Y44826D01*
X194706Y44700D01*
X195110Y44533D01*
X195498Y44331D01*
X195867Y44097D01*
X196213Y43831D01*
X196522Y43548D01*
Y36452D01*
X196213Y36169D01*
X195867Y35903D01*
X195498Y35669D01*
X195110Y35467D01*
X194706Y35300D01*
X194290Y35169D01*
X194178Y35132D01*
X194074Y35076D01*
X193980Y35004D01*
X193899Y34919D01*
X193832Y34821D01*
X193781Y34715D01*
X193747Y34602D01*
X193732Y34485D01*
X193735Y34367D01*
X193756Y34251D01*
X193795Y34139D01*
X193852Y34035D01*
X193924Y33942D01*
X194009Y33860D01*
X194106Y33793D01*
X194213Y33742D01*
X194326Y33709D01*
X194443Y33693D01*
X194561Y33696D01*
X194676Y33720D01*
X195221Y33884D01*
X195746Y34102D01*
X196250Y34364D01*
X196522Y34537D01*
Y9000D01*
G37*
G36*
X189478Y50367D02*X189440Y51020D01*
X189201Y52015D01*
X188809Y52960D01*
X188275Y53832D01*
X187610Y54610D01*
X186832Y55275D01*
X185960Y55809D01*
X185015Y56201D01*
X184020Y56440D01*
X183000Y56520D01*
X182990Y56519D01*
Y117000D01*
X189478D01*
Y65463D01*
X189270Y65331D01*
X188819Y64985D01*
X188399Y64601D01*
X188015Y64181D01*
X187669Y63730D01*
X187364Y63250D01*
X187102Y62746D01*
X186884Y62221D01*
X186714Y61678D01*
X186692Y61561D01*
X186689Y61443D01*
X186704Y61325D01*
X186738Y61211D01*
X186789Y61104D01*
X186857Y61006D01*
X186938Y60920D01*
X187033Y60848D01*
X187137Y60791D01*
X187249Y60752D01*
X187366Y60730D01*
X187485Y60727D01*
X187603Y60743D01*
X187717Y60776D01*
X187824Y60828D01*
X187922Y60895D01*
X188008Y60977D01*
X188080Y61071D01*
X188136Y61176D01*
X188174Y61288D01*
X188300Y61706D01*
X188467Y62110D01*
X188669Y62498D01*
X188903Y62867D01*
X189169Y63213D01*
X189464Y63536D01*
X189478Y63548D01*
Y56452D01*
X189464Y56464D01*
X189169Y56787D01*
X188903Y57133D01*
X188669Y57502D01*
X188467Y57890D01*
X188300Y58294D01*
X188169Y58710D01*
X188132Y58822D01*
X188076Y58926D01*
X188004Y59020D01*
X187919Y59101D01*
X187821Y59168D01*
X187715Y59219D01*
X187602Y59253D01*
X187485Y59268D01*
X187367Y59265D01*
X187251Y59244D01*
X187139Y59205D01*
X187035Y59148D01*
X186942Y59076D01*
X186860Y58991D01*
X186793Y58894D01*
X186742Y58787D01*
X186709Y58674D01*
X186693Y58557D01*
X186696Y58439D01*
X186720Y58324D01*
X186884Y57779D01*
X187102Y57254D01*
X187364Y56750D01*
X187669Y56270D01*
X188015Y55819D01*
X188399Y55399D01*
X188819Y55015D01*
X189270Y54669D01*
X189478Y54537D01*
Y50367D01*
G37*
G36*
Y9000D02*X182990D01*
Y43481D01*
X183000Y43480D01*
X184020Y43560D01*
X185015Y43799D01*
X185960Y44191D01*
X186832Y44725D01*
X187610Y45390D01*
X188275Y46168D01*
X188809Y47040D01*
X189201Y47985D01*
X189440Y48980D01*
X189478Y49633D01*
Y45463D01*
X189270Y45331D01*
X188819Y44985D01*
X188399Y44601D01*
X188015Y44181D01*
X187669Y43730D01*
X187364Y43250D01*
X187102Y42746D01*
X186884Y42221D01*
X186714Y41678D01*
X186692Y41561D01*
X186689Y41443D01*
X186704Y41325D01*
X186738Y41211D01*
X186789Y41104D01*
X186857Y41006D01*
X186938Y40920D01*
X187033Y40848D01*
X187137Y40791D01*
X187249Y40752D01*
X187366Y40730D01*
X187485Y40727D01*
X187603Y40743D01*
X187717Y40776D01*
X187824Y40828D01*
X187922Y40895D01*
X188008Y40977D01*
X188080Y41071D01*
X188136Y41176D01*
X188174Y41288D01*
X188300Y41706D01*
X188467Y42110D01*
X188669Y42498D01*
X188903Y42867D01*
X189169Y43213D01*
X189464Y43536D01*
X189478Y43548D01*
Y36452D01*
X189464Y36464D01*
X189169Y36787D01*
X188903Y37133D01*
X188669Y37502D01*
X188467Y37890D01*
X188300Y38294D01*
X188169Y38710D01*
X188132Y38822D01*
X188076Y38926D01*
X188004Y39020D01*
X187919Y39101D01*
X187821Y39168D01*
X187715Y39219D01*
X187602Y39253D01*
X187485Y39268D01*
X187367Y39265D01*
X187251Y39244D01*
X187139Y39205D01*
X187035Y39148D01*
X186942Y39076D01*
X186860Y38991D01*
X186793Y38894D01*
X186742Y38787D01*
X186709Y38674D01*
X186693Y38557D01*
X186696Y38439D01*
X186720Y38324D01*
X186884Y37779D01*
X187102Y37254D01*
X187364Y36750D01*
X187669Y36270D01*
X188015Y35819D01*
X188399Y35399D01*
X188819Y35015D01*
X189270Y34669D01*
X189478Y34537D01*
Y9000D01*
G37*
G36*
Y225000D02*X196522D01*
Y201463D01*
X196250Y201636D01*
X195746Y201898D01*
X195221Y202116D01*
X194678Y202286D01*
X194561Y202308D01*
X194443Y202311D01*
X194325Y202296D01*
X194211Y202262D01*
X194104Y202211D01*
X194006Y202143D01*
X193920Y202062D01*
X193848Y201967D01*
X193791Y201863D01*
X193752Y201751D01*
X193730Y201634D01*
X193727Y201515D01*
X193743Y201397D01*
X193776Y201283D01*
X193828Y201176D01*
X193895Y201078D01*
X193977Y200992D01*
X194071Y200920D01*
X194176Y200864D01*
X194288Y200826D01*
X194706Y200700D01*
X195110Y200533D01*
X195498Y200331D01*
X195867Y200097D01*
X196213Y199831D01*
X196522Y199548D01*
Y192452D01*
X196213Y192169D01*
X195867Y191903D01*
X195498Y191669D01*
X195110Y191467D01*
X194706Y191300D01*
X194290Y191169D01*
X194178Y191132D01*
X194074Y191076D01*
X193980Y191004D01*
X193899Y190919D01*
X193832Y190821D01*
X193781Y190715D01*
X193747Y190602D01*
X193732Y190485D01*
X193735Y190367D01*
X193756Y190251D01*
X193795Y190139D01*
X193852Y190035D01*
X193924Y189942D01*
X194009Y189860D01*
X194106Y189793D01*
X194213Y189742D01*
X194326Y189709D01*
X194443Y189693D01*
X194561Y189696D01*
X194676Y189720D01*
X195221Y189884D01*
X195746Y190102D01*
X196250Y190364D01*
X196522Y190537D01*
Y181463D01*
X196250Y181636D01*
X195746Y181898D01*
X195221Y182116D01*
X194678Y182286D01*
X194561Y182308D01*
X194443Y182311D01*
X194325Y182296D01*
X194211Y182262D01*
X194104Y182211D01*
X194006Y182143D01*
X193920Y182062D01*
X193848Y181967D01*
X193791Y181863D01*
X193752Y181751D01*
X193730Y181634D01*
X193727Y181515D01*
X193743Y181397D01*
X193776Y181283D01*
X193828Y181176D01*
X193895Y181078D01*
X193977Y180992D01*
X194071Y180920D01*
X194176Y180864D01*
X194288Y180826D01*
X194706Y180700D01*
X195110Y180533D01*
X195498Y180331D01*
X195867Y180097D01*
X196213Y179831D01*
X196522Y179548D01*
Y172452D01*
X196213Y172169D01*
X195867Y171903D01*
X195498Y171669D01*
X195110Y171467D01*
X194706Y171300D01*
X194290Y171169D01*
X194178Y171132D01*
X194074Y171076D01*
X193980Y171004D01*
X193899Y170919D01*
X193832Y170821D01*
X193781Y170715D01*
X193747Y170602D01*
X193732Y170485D01*
X193735Y170367D01*
X193756Y170251D01*
X193795Y170139D01*
X193852Y170035D01*
X193924Y169942D01*
X194009Y169860D01*
X194106Y169793D01*
X194213Y169742D01*
X194326Y169709D01*
X194443Y169693D01*
X194561Y169696D01*
X194676Y169720D01*
X195221Y169884D01*
X195746Y170102D01*
X196250Y170364D01*
X196522Y170537D01*
Y119736D01*
X196442Y119717D01*
X196180Y119609D01*
X195939Y119461D01*
X195723Y119277D01*
X195539Y119061D01*
X195502Y119000D01*
X189478D01*
Y170537D01*
X189750Y170364D01*
X190254Y170102D01*
X190779Y169884D01*
X191322Y169714D01*
X191439Y169692D01*
X191557Y169689D01*
X191675Y169704D01*
X191789Y169738D01*
X191896Y169789D01*
X191994Y169857D01*
X192080Y169938D01*
X192152Y170033D01*
X192209Y170137D01*
X192248Y170249D01*
X192270Y170366D01*
X192273Y170485D01*
X192257Y170603D01*
X192224Y170717D01*
X192172Y170824D01*
X192105Y170922D01*
X192023Y171008D01*
X191929Y171080D01*
X191824Y171136D01*
X191712Y171174D01*
X191294Y171300D01*
X190890Y171467D01*
X190502Y171669D01*
X190133Y171903D01*
X189787Y172169D01*
X189478Y172452D01*
Y179548D01*
X189787Y179831D01*
X190133Y180097D01*
X190502Y180331D01*
X190890Y180533D01*
X191294Y180700D01*
X191710Y180831D01*
X191822Y180868D01*
X191926Y180924D01*
X192020Y180996D01*
X192101Y181081D01*
X192168Y181179D01*
X192219Y181285D01*
X192253Y181398D01*
X192268Y181515D01*
X192265Y181633D01*
X192244Y181749D01*
X192205Y181861D01*
X192148Y181965D01*
X192076Y182058D01*
X191991Y182140D01*
X191894Y182207D01*
X191787Y182258D01*
X191674Y182291D01*
X191557Y182307D01*
X191439Y182304D01*
X191324Y182280D01*
X190779Y182116D01*
X190254Y181898D01*
X189750Y181636D01*
X189478Y181463D01*
Y185633D01*
X189500Y186000D01*
X189478Y186367D01*
Y190537D01*
X189750Y190364D01*
X190254Y190102D01*
X190779Y189884D01*
X191322Y189714D01*
X191439Y189692D01*
X191557Y189689D01*
X191675Y189704D01*
X191789Y189738D01*
X191896Y189789D01*
X191994Y189857D01*
X192080Y189938D01*
X192152Y190033D01*
X192209Y190137D01*
X192248Y190249D01*
X192270Y190366D01*
X192273Y190485D01*
X192257Y190603D01*
X192224Y190717D01*
X192172Y190824D01*
X192105Y190922D01*
X192023Y191008D01*
X191929Y191080D01*
X191824Y191136D01*
X191712Y191174D01*
X191294Y191300D01*
X190890Y191467D01*
X190502Y191669D01*
X190133Y191903D01*
X189787Y192169D01*
X189478Y192452D01*
Y199548D01*
X189787Y199831D01*
X190133Y200097D01*
X190502Y200331D01*
X190890Y200533D01*
X191294Y200700D01*
X191710Y200831D01*
X191822Y200868D01*
X191926Y200924D01*
X192020Y200996D01*
X192101Y201081D01*
X192168Y201179D01*
X192219Y201285D01*
X192253Y201398D01*
X192268Y201515D01*
X192265Y201633D01*
X192244Y201749D01*
X192205Y201861D01*
X192148Y201965D01*
X192076Y202058D01*
X191991Y202140D01*
X191894Y202207D01*
X191787Y202258D01*
X191674Y202291D01*
X191557Y202307D01*
X191439Y202304D01*
X191324Y202280D01*
X190779Y202116D01*
X190254Y201898D01*
X189750Y201636D01*
X189478Y201463D01*
Y225000D01*
G37*
G36*
Y119000D02*X182990D01*
Y179481D01*
X183000Y179480D01*
X184020Y179560D01*
X185015Y179799D01*
X185960Y180191D01*
X186832Y180725D01*
X187610Y181390D01*
X188275Y182168D01*
X188809Y183040D01*
X189201Y183985D01*
X189440Y184980D01*
X189478Y185633D01*
Y181463D01*
X189270Y181331D01*
X188819Y180985D01*
X188399Y180601D01*
X188015Y180181D01*
X187669Y179730D01*
X187364Y179250D01*
X187102Y178746D01*
X186884Y178221D01*
X186714Y177678D01*
X186692Y177561D01*
X186689Y177443D01*
X186704Y177325D01*
X186738Y177211D01*
X186789Y177104D01*
X186857Y177006D01*
X186938Y176920D01*
X187033Y176848D01*
X187137Y176791D01*
X187249Y176752D01*
X187366Y176730D01*
X187485Y176727D01*
X187603Y176743D01*
X187717Y176776D01*
X187824Y176828D01*
X187922Y176895D01*
X188008Y176977D01*
X188080Y177071D01*
X188136Y177176D01*
X188174Y177288D01*
X188300Y177706D01*
X188467Y178110D01*
X188669Y178498D01*
X188903Y178867D01*
X189169Y179213D01*
X189464Y179536D01*
X189478Y179548D01*
Y172452D01*
X189464Y172464D01*
X189169Y172787D01*
X188903Y173133D01*
X188669Y173502D01*
X188467Y173890D01*
X188300Y174294D01*
X188169Y174710D01*
X188132Y174822D01*
X188076Y174926D01*
X188004Y175020D01*
X187919Y175101D01*
X187821Y175168D01*
X187715Y175219D01*
X187602Y175253D01*
X187485Y175268D01*
X187367Y175265D01*
X187251Y175244D01*
X187139Y175205D01*
X187035Y175148D01*
X186942Y175076D01*
X186860Y174991D01*
X186793Y174894D01*
X186742Y174787D01*
X186709Y174674D01*
X186693Y174557D01*
X186696Y174439D01*
X186720Y174324D01*
X186884Y173779D01*
X187102Y173254D01*
X187364Y172750D01*
X187669Y172270D01*
X188015Y171819D01*
X188399Y171399D01*
X188819Y171015D01*
X189270Y170669D01*
X189478Y170537D01*
Y119000D01*
G37*
G36*
X182990Y225000D02*X189478D01*
Y201463D01*
X189270Y201331D01*
X188819Y200985D01*
X188399Y200601D01*
X188015Y200181D01*
X187669Y199730D01*
X187364Y199250D01*
X187102Y198746D01*
X186884Y198221D01*
X186714Y197678D01*
X186692Y197561D01*
X186689Y197443D01*
X186704Y197325D01*
X186738Y197211D01*
X186789Y197104D01*
X186857Y197006D01*
X186938Y196920D01*
X187033Y196848D01*
X187137Y196791D01*
X187249Y196752D01*
X187366Y196730D01*
X187485Y196727D01*
X187603Y196743D01*
X187717Y196776D01*
X187824Y196828D01*
X187922Y196895D01*
X188008Y196977D01*
X188080Y197071D01*
X188136Y197176D01*
X188174Y197288D01*
X188300Y197706D01*
X188467Y198110D01*
X188669Y198498D01*
X188903Y198867D01*
X189169Y199213D01*
X189464Y199536D01*
X189478Y199548D01*
Y192452D01*
X189464Y192464D01*
X189169Y192787D01*
X188903Y193133D01*
X188669Y193502D01*
X188467Y193890D01*
X188300Y194294D01*
X188169Y194710D01*
X188132Y194822D01*
X188076Y194926D01*
X188004Y195020D01*
X187919Y195101D01*
X187821Y195168D01*
X187715Y195219D01*
X187602Y195253D01*
X187485Y195268D01*
X187367Y195265D01*
X187251Y195244D01*
X187139Y195205D01*
X187035Y195148D01*
X186942Y195076D01*
X186860Y194991D01*
X186793Y194894D01*
X186742Y194787D01*
X186709Y194674D01*
X186693Y194557D01*
X186696Y194439D01*
X186720Y194324D01*
X186884Y193779D01*
X187102Y193254D01*
X187364Y192750D01*
X187669Y192270D01*
X188015Y191819D01*
X188399Y191399D01*
X188819Y191015D01*
X189270Y190669D01*
X189478Y190537D01*
Y186367D01*
X189440Y187020D01*
X189201Y188015D01*
X188809Y188960D01*
X188275Y189832D01*
X187610Y190610D01*
X186832Y191275D01*
X185960Y191809D01*
X185015Y192201D01*
X184020Y192440D01*
X183000Y192520D01*
X182990Y192519D01*
Y225000D01*
G37*
G36*
X176522Y117000D02*X182990D01*
Y56519D01*
X181980Y56440D01*
X180985Y56201D01*
X180040Y55809D01*
X179168Y55275D01*
X178390Y54610D01*
X177725Y53832D01*
X177191Y52960D01*
X176799Y52015D01*
X176560Y51020D01*
X176522Y50530D01*
Y54537D01*
X176730Y54669D01*
X177181Y55015D01*
X177601Y55399D01*
X177985Y55819D01*
X178331Y56270D01*
X178636Y56750D01*
X178898Y57254D01*
X179116Y57779D01*
X179286Y58322D01*
X179308Y58439D01*
X179311Y58557D01*
X179296Y58675D01*
X179262Y58789D01*
X179211Y58896D01*
X179143Y58994D01*
X179062Y59080D01*
X178967Y59152D01*
X178863Y59209D01*
X178751Y59248D01*
X178634Y59270D01*
X178515Y59273D01*
X178397Y59257D01*
X178283Y59224D01*
X178176Y59172D01*
X178078Y59105D01*
X177992Y59023D01*
X177920Y58929D01*
X177864Y58824D01*
X177826Y58712D01*
X177700Y58294D01*
X177533Y57890D01*
X177331Y57502D01*
X177097Y57133D01*
X176831Y56787D01*
X176536Y56464D01*
X176522Y56452D01*
Y63548D01*
X176536Y63536D01*
X176831Y63213D01*
X177097Y62867D01*
X177331Y62498D01*
X177533Y62110D01*
X177700Y61706D01*
X177831Y61290D01*
X177868Y61178D01*
X177924Y61074D01*
X177996Y60980D01*
X178081Y60899D01*
X178179Y60832D01*
X178285Y60781D01*
X178398Y60747D01*
X178515Y60732D01*
X178633Y60735D01*
X178749Y60756D01*
X178861Y60795D01*
X178965Y60852D01*
X179058Y60924D01*
X179140Y61009D01*
X179207Y61106D01*
X179258Y61213D01*
X179291Y61326D01*
X179307Y61443D01*
X179304Y61561D01*
X179280Y61676D01*
X179116Y62221D01*
X178898Y62746D01*
X178636Y63250D01*
X178331Y63730D01*
X177985Y64181D01*
X177601Y64601D01*
X177181Y64985D01*
X176730Y65331D01*
X176522Y65463D01*
Y117000D01*
G37*
G36*
X182990Y9000D02*X176522D01*
Y34537D01*
X176730Y34669D01*
X177181Y35015D01*
X177601Y35399D01*
X177985Y35819D01*
X178331Y36270D01*
X178636Y36750D01*
X178898Y37254D01*
X179116Y37779D01*
X179286Y38322D01*
X179308Y38439D01*
X179311Y38557D01*
X179296Y38675D01*
X179262Y38789D01*
X179211Y38896D01*
X179143Y38994D01*
X179062Y39080D01*
X178967Y39152D01*
X178863Y39209D01*
X178751Y39248D01*
X178634Y39270D01*
X178515Y39273D01*
X178397Y39257D01*
X178283Y39224D01*
X178176Y39172D01*
X178078Y39105D01*
X177992Y39023D01*
X177920Y38929D01*
X177864Y38824D01*
X177826Y38712D01*
X177700Y38294D01*
X177533Y37890D01*
X177331Y37502D01*
X177097Y37133D01*
X176831Y36787D01*
X176536Y36464D01*
X176522Y36452D01*
Y43548D01*
X176536Y43536D01*
X176831Y43213D01*
X177097Y42867D01*
X177331Y42498D01*
X177533Y42110D01*
X177700Y41706D01*
X177831Y41290D01*
X177868Y41178D01*
X177924Y41074D01*
X177996Y40980D01*
X178081Y40899D01*
X178179Y40832D01*
X178285Y40781D01*
X178398Y40747D01*
X178515Y40732D01*
X178633Y40735D01*
X178749Y40756D01*
X178861Y40795D01*
X178965Y40852D01*
X179058Y40924D01*
X179140Y41009D01*
X179207Y41106D01*
X179258Y41213D01*
X179291Y41326D01*
X179307Y41443D01*
X179304Y41561D01*
X179280Y41676D01*
X179116Y42221D01*
X178898Y42746D01*
X178636Y43250D01*
X178331Y43730D01*
X177985Y44181D01*
X177601Y44601D01*
X177181Y44985D01*
X176730Y45331D01*
X176522Y45463D01*
Y49470D01*
X176560Y48980D01*
X176799Y47985D01*
X177191Y47040D01*
X177725Y46168D01*
X178390Y45390D01*
X179168Y44725D01*
X180040Y44191D01*
X180985Y43799D01*
X181980Y43560D01*
X182990Y43481D01*
Y9000D01*
G37*
G36*
X176522D02*X169478D01*
Y34537D01*
X169750Y34364D01*
X170254Y34102D01*
X170779Y33884D01*
X171322Y33714D01*
X171439Y33692D01*
X171557Y33689D01*
X171675Y33704D01*
X171789Y33738D01*
X171896Y33789D01*
X171994Y33857D01*
X172080Y33938D01*
X172152Y34033D01*
X172209Y34137D01*
X172248Y34249D01*
X172270Y34366D01*
X172273Y34485D01*
X172257Y34603D01*
X172224Y34717D01*
X172172Y34824D01*
X172105Y34922D01*
X172023Y35008D01*
X171929Y35080D01*
X171824Y35136D01*
X171712Y35174D01*
X171294Y35300D01*
X170890Y35467D01*
X170502Y35669D01*
X170133Y35903D01*
X169787Y36169D01*
X169478Y36452D01*
Y43548D01*
X169787Y43831D01*
X170133Y44097D01*
X170502Y44331D01*
X170890Y44533D01*
X171294Y44700D01*
X171710Y44831D01*
X171822Y44868D01*
X171926Y44924D01*
X172020Y44996D01*
X172101Y45081D01*
X172168Y45179D01*
X172219Y45285D01*
X172253Y45398D01*
X172268Y45515D01*
X172265Y45633D01*
X172244Y45749D01*
X172205Y45861D01*
X172148Y45965D01*
X172076Y46058D01*
X171991Y46140D01*
X171894Y46207D01*
X171787Y46258D01*
X171674Y46291D01*
X171557Y46307D01*
X171439Y46304D01*
X171324Y46280D01*
X170779Y46116D01*
X170254Y45898D01*
X169750Y45636D01*
X169478Y45463D01*
Y54537D01*
X169750Y54364D01*
X170254Y54102D01*
X170779Y53884D01*
X171322Y53714D01*
X171439Y53692D01*
X171557Y53689D01*
X171675Y53704D01*
X171789Y53738D01*
X171896Y53789D01*
X171994Y53857D01*
X172080Y53938D01*
X172152Y54033D01*
X172209Y54137D01*
X172248Y54249D01*
X172270Y54366D01*
X172273Y54485D01*
X172257Y54603D01*
X172224Y54717D01*
X172172Y54824D01*
X172105Y54922D01*
X172023Y55008D01*
X171929Y55080D01*
X171824Y55136D01*
X171712Y55174D01*
X171294Y55300D01*
X170890Y55467D01*
X170502Y55669D01*
X170133Y55903D01*
X169787Y56169D01*
X169478Y56452D01*
Y63548D01*
X169787Y63831D01*
X170133Y64097D01*
X170502Y64331D01*
X170890Y64533D01*
X171294Y64700D01*
X171710Y64831D01*
X171822Y64868D01*
X171926Y64924D01*
X172020Y64996D01*
X172101Y65081D01*
X172168Y65179D01*
X172219Y65285D01*
X172253Y65398D01*
X172268Y65515D01*
X172265Y65633D01*
X172244Y65749D01*
X172205Y65861D01*
X172148Y65965D01*
X172076Y66058D01*
X171991Y66140D01*
X171894Y66207D01*
X171787Y66258D01*
X171674Y66291D01*
X171557Y66307D01*
X171439Y66304D01*
X171324Y66280D01*
X170779Y66116D01*
X170254Y65898D01*
X169750Y65636D01*
X169478Y65463D01*
Y102564D01*
X169648Y102733D01*
X169718Y102717D01*
X170000Y102694D01*
X170282Y102717D01*
X170558Y102783D01*
X170820Y102891D01*
X171061Y103039D01*
X171277Y103223D01*
X171461Y103439D01*
X171609Y103680D01*
X171717Y103942D01*
X171783Y104218D01*
X171800Y104500D01*
X171783Y104782D01*
X171717Y105058D01*
X171609Y105320D01*
X171461Y105561D01*
X171277Y105777D01*
X171061Y105961D01*
X170820Y106109D01*
X170558Y106217D01*
X170282Y106283D01*
X170000Y106306D01*
X169718Y106283D01*
X169478Y106226D01*
Y117000D01*
X176522D01*
Y65463D01*
X176250Y65636D01*
X175746Y65898D01*
X175221Y66116D01*
X174678Y66286D01*
X174561Y66308D01*
X174443Y66311D01*
X174325Y66296D01*
X174211Y66262D01*
X174104Y66211D01*
X174006Y66143D01*
X173920Y66062D01*
X173848Y65967D01*
X173791Y65863D01*
X173752Y65751D01*
X173730Y65634D01*
X173727Y65515D01*
X173743Y65397D01*
X173776Y65283D01*
X173828Y65176D01*
X173895Y65078D01*
X173977Y64992D01*
X174071Y64920D01*
X174176Y64864D01*
X174288Y64826D01*
X174706Y64700D01*
X175110Y64533D01*
X175498Y64331D01*
X175867Y64097D01*
X176213Y63831D01*
X176522Y63548D01*
Y56452D01*
X176213Y56169D01*
X175867Y55903D01*
X175498Y55669D01*
X175110Y55467D01*
X174706Y55300D01*
X174290Y55169D01*
X174178Y55132D01*
X174074Y55076D01*
X173980Y55004D01*
X173899Y54919D01*
X173832Y54821D01*
X173781Y54715D01*
X173747Y54602D01*
X173732Y54485D01*
X173735Y54367D01*
X173756Y54251D01*
X173795Y54139D01*
X173852Y54035D01*
X173924Y53942D01*
X174009Y53860D01*
X174106Y53793D01*
X174213Y53742D01*
X174326Y53709D01*
X174443Y53693D01*
X174561Y53696D01*
X174676Y53720D01*
X175221Y53884D01*
X175746Y54102D01*
X176250Y54364D01*
X176522Y54537D01*
Y50530D01*
X176480Y50000D01*
X176522Y49470D01*
Y45463D01*
X176250Y45636D01*
X175746Y45898D01*
X175221Y46116D01*
X174678Y46286D01*
X174561Y46308D01*
X174443Y46311D01*
X174325Y46296D01*
X174211Y46262D01*
X174104Y46211D01*
X174006Y46143D01*
X173920Y46062D01*
X173848Y45967D01*
X173791Y45863D01*
X173752Y45751D01*
X173730Y45634D01*
X173727Y45515D01*
X173743Y45397D01*
X173776Y45283D01*
X173828Y45176D01*
X173895Y45078D01*
X173977Y44992D01*
X174071Y44920D01*
X174176Y44864D01*
X174288Y44826D01*
X174706Y44700D01*
X175110Y44533D01*
X175498Y44331D01*
X175867Y44097D01*
X176213Y43831D01*
X176522Y43548D01*
Y36452D01*
X176213Y36169D01*
X175867Y35903D01*
X175498Y35669D01*
X175110Y35467D01*
X174706Y35300D01*
X174290Y35169D01*
X174178Y35132D01*
X174074Y35076D01*
X173980Y35004D01*
X173899Y34919D01*
X173832Y34821D01*
X173781Y34715D01*
X173747Y34602D01*
X173732Y34485D01*
X173735Y34367D01*
X173756Y34251D01*
X173795Y34139D01*
X173852Y34035D01*
X173924Y33942D01*
X174009Y33860D01*
X174106Y33793D01*
X174213Y33742D01*
X174326Y33709D01*
X174443Y33693D01*
X174561Y33696D01*
X174676Y33720D01*
X175221Y33884D01*
X175746Y34102D01*
X176250Y34364D01*
X176522Y34537D01*
Y9000D01*
G37*
G36*
X169478Y106226D02*X169442Y106217D01*
X169180Y106109D01*
X168939Y105961D01*
X168723Y105777D01*
X168539Y105561D01*
X168391Y105320D01*
X168283Y105058D01*
X168217Y104782D01*
X168194Y104500D01*
X168217Y104218D01*
X168233Y104148D01*
X166321Y102235D01*
X166291Y102209D01*
X166188Y102090D01*
X166106Y101955D01*
X166046Y101810D01*
X166009Y101657D01*
X166009Y101657D01*
X165997Y101500D01*
X166000Y101461D01*
Y94414D01*
X162852Y91267D01*
X162782Y91283D01*
X162500Y91306D01*
X162218Y91283D01*
X161942Y91217D01*
X161680Y91109D01*
X161439Y90961D01*
X161223Y90777D01*
X161039Y90561D01*
X160891Y90320D01*
X160783Y90058D01*
X160717Y89782D01*
X160694Y89500D01*
X160717Y89218D01*
X160783Y88942D01*
X160891Y88680D01*
X161039Y88439D01*
X161223Y88223D01*
X161439Y88039D01*
X161500Y88002D01*
Y57914D01*
X157586Y54000D01*
X154997D01*
Y81194D01*
X155164Y81336D01*
X155317Y81516D01*
X155441Y81717D01*
X155531Y81935D01*
X155586Y82165D01*
X155600Y82400D01*
X155586Y103835D01*
X155531Y104065D01*
X155441Y104283D01*
X155317Y104484D01*
X155164Y104664D01*
X154997Y104806D01*
Y105997D01*
X155000Y105997D01*
X155039Y106000D01*
X164000D01*
Y105998D01*
X163939Y105961D01*
X163723Y105777D01*
X163539Y105561D01*
X163391Y105320D01*
X163283Y105058D01*
X163217Y104782D01*
X163194Y104500D01*
X163217Y104218D01*
X163283Y103942D01*
X163391Y103680D01*
X163539Y103439D01*
X163723Y103223D01*
X163939Y103039D01*
X164180Y102891D01*
X164442Y102783D01*
X164718Y102717D01*
X165000Y102694D01*
X165282Y102717D01*
X165558Y102783D01*
X165820Y102891D01*
X166061Y103039D01*
X166277Y103223D01*
X166461Y103439D01*
X166609Y103680D01*
X166717Y103942D01*
X166783Y104218D01*
X166800Y104500D01*
X166783Y104782D01*
X166717Y105058D01*
X166609Y105320D01*
X166461Y105561D01*
X166277Y105777D01*
X166061Y105961D01*
X166000Y105998D01*
Y106461D01*
X166003Y106500D01*
X165991Y106657D01*
X165954Y106810D01*
X165894Y106955D01*
X165812Y107090D01*
X165811Y107090D01*
X165709Y107209D01*
X165679Y107235D01*
X165235Y107679D01*
X165209Y107709D01*
X165090Y107811D01*
X165090Y107812D01*
X164955Y107894D01*
X164810Y107954D01*
X164657Y107991D01*
X164500Y108003D01*
X164461Y108000D01*
X155414D01*
X154997Y108417D01*
Y118497D01*
X155000Y118497D01*
X155039Y118500D01*
X158086D01*
X159265Y117321D01*
X159291Y117291D01*
X159410Y117189D01*
X159410Y117188D01*
X159545Y117106D01*
X159690Y117046D01*
X159813Y117016D01*
X159843Y117009D01*
X159843D01*
X160000Y116997D01*
X160039Y117000D01*
X169478D01*
Y106226D01*
G37*
G36*
Y9000D02*X154997D01*
Y17407D01*
X155262Y17344D01*
X156000Y17286D01*
X156738Y17344D01*
X157457Y17516D01*
X158140Y17799D01*
X158771Y18186D01*
X159334Y18666D01*
X159814Y19229D01*
X160201Y19860D01*
X160484Y20543D01*
X160656Y21262D01*
X160700Y22000D01*
X160656Y22738D01*
X160484Y23457D01*
X160201Y24140D01*
X159814Y24771D01*
X159334Y25334D01*
X158771Y25814D01*
X158140Y26201D01*
X157457Y26484D01*
X156738Y26656D01*
X156000Y26714D01*
X155262Y26656D01*
X154997Y26593D01*
Y52000D01*
X157961D01*
X158000Y51997D01*
X158157Y52009D01*
X158157Y52009D01*
X158310Y52046D01*
X158455Y52106D01*
X158590Y52188D01*
X158709Y52291D01*
X158735Y52321D01*
X163179Y56765D01*
X163209Y56791D01*
X163311Y56910D01*
X163312Y56910D01*
X163394Y57045D01*
X163454Y57190D01*
X163491Y57343D01*
X163503Y57500D01*
X163500Y57539D01*
Y88002D01*
X163561Y88039D01*
X163777Y88223D01*
X163961Y88439D01*
X164109Y88680D01*
X164217Y88942D01*
X164283Y89218D01*
X164300Y89500D01*
X164283Y89782D01*
X164267Y89852D01*
X167679Y93265D01*
X167709Y93291D01*
X167811Y93410D01*
X167812Y93410D01*
X167894Y93545D01*
X167954Y93690D01*
X167991Y93843D01*
X168003Y94000D01*
X168000Y94039D01*
Y101086D01*
X169478Y102564D01*
Y65463D01*
X169270Y65331D01*
X168819Y64985D01*
X168399Y64601D01*
X168015Y64181D01*
X167669Y63730D01*
X167364Y63250D01*
X167102Y62746D01*
X166884Y62221D01*
X166714Y61678D01*
X166692Y61561D01*
X166689Y61443D01*
X166704Y61325D01*
X166738Y61211D01*
X166789Y61104D01*
X166857Y61006D01*
X166938Y60920D01*
X167033Y60848D01*
X167137Y60791D01*
X167249Y60752D01*
X167366Y60730D01*
X167485Y60727D01*
X167603Y60743D01*
X167717Y60776D01*
X167824Y60828D01*
X167922Y60895D01*
X168008Y60977D01*
X168080Y61071D01*
X168136Y61176D01*
X168174Y61288D01*
X168300Y61706D01*
X168467Y62110D01*
X168669Y62498D01*
X168903Y62867D01*
X169169Y63213D01*
X169464Y63536D01*
X169478Y63548D01*
Y56452D01*
X169464Y56464D01*
X169169Y56787D01*
X168903Y57133D01*
X168669Y57502D01*
X168467Y57890D01*
X168300Y58294D01*
X168169Y58710D01*
X168132Y58822D01*
X168076Y58926D01*
X168004Y59020D01*
X167919Y59101D01*
X167821Y59168D01*
X167715Y59219D01*
X167602Y59253D01*
X167485Y59268D01*
X167367Y59265D01*
X167251Y59244D01*
X167139Y59205D01*
X167035Y59148D01*
X166942Y59076D01*
X166860Y58991D01*
X166793Y58894D01*
X166742Y58787D01*
X166709Y58674D01*
X166693Y58557D01*
X166696Y58439D01*
X166720Y58324D01*
X166884Y57779D01*
X167102Y57254D01*
X167364Y56750D01*
X167669Y56270D01*
X168015Y55819D01*
X168399Y55399D01*
X168819Y55015D01*
X169270Y54669D01*
X169478Y54537D01*
Y45463D01*
X169270Y45331D01*
X168819Y44985D01*
X168399Y44601D01*
X168015Y44181D01*
X167669Y43730D01*
X167364Y43250D01*
X167102Y42746D01*
X166884Y42221D01*
X166714Y41678D01*
X166692Y41561D01*
X166689Y41443D01*
X166704Y41325D01*
X166738Y41211D01*
X166789Y41104D01*
X166857Y41006D01*
X166938Y40920D01*
X167033Y40848D01*
X167137Y40791D01*
X167249Y40752D01*
X167366Y40730D01*
X167485Y40727D01*
X167603Y40743D01*
X167717Y40776D01*
X167824Y40828D01*
X167922Y40895D01*
X168008Y40977D01*
X168080Y41071D01*
X168136Y41176D01*
X168174Y41288D01*
X168300Y41706D01*
X168467Y42110D01*
X168669Y42498D01*
X168903Y42867D01*
X169169Y43213D01*
X169464Y43536D01*
X169478Y43548D01*
Y36452D01*
X169464Y36464D01*
X169169Y36787D01*
X168903Y37133D01*
X168669Y37502D01*
X168467Y37890D01*
X168300Y38294D01*
X168169Y38710D01*
X168132Y38822D01*
X168076Y38926D01*
X168004Y39020D01*
X167919Y39101D01*
X167821Y39168D01*
X167715Y39219D01*
X167602Y39253D01*
X167485Y39268D01*
X167367Y39265D01*
X167251Y39244D01*
X167139Y39205D01*
X167035Y39148D01*
X166942Y39076D01*
X166860Y38991D01*
X166793Y38894D01*
X166742Y38787D01*
X166709Y38674D01*
X166693Y38557D01*
X166696Y38439D01*
X166720Y38324D01*
X166884Y37779D01*
X167102Y37254D01*
X167364Y36750D01*
X167669Y36270D01*
X168015Y35819D01*
X168399Y35399D01*
X168819Y35015D01*
X169270Y34669D01*
X169478Y34537D01*
Y9000D01*
G37*
G36*
X176522Y185470D02*X176560Y184980D01*
X176799Y183985D01*
X177191Y183040D01*
X177725Y182168D01*
X178390Y181390D01*
X179168Y180725D01*
X180040Y180191D01*
X180985Y179799D01*
X181980Y179560D01*
X182990Y179481D01*
Y119000D01*
X176522D01*
Y156038D01*
X176609Y156180D01*
X176717Y156442D01*
X176783Y156718D01*
X176800Y157000D01*
X176783Y157282D01*
X176717Y157558D01*
X176609Y157820D01*
X176522Y157962D01*
Y170537D01*
X176730Y170669D01*
X177181Y171015D01*
X177601Y171399D01*
X177985Y171819D01*
X178331Y172270D01*
X178636Y172750D01*
X178898Y173254D01*
X179116Y173779D01*
X179286Y174322D01*
X179308Y174439D01*
X179311Y174557D01*
X179296Y174675D01*
X179262Y174789D01*
X179211Y174896D01*
X179143Y174994D01*
X179062Y175080D01*
X178967Y175152D01*
X178863Y175209D01*
X178751Y175248D01*
X178634Y175270D01*
X178515Y175273D01*
X178397Y175257D01*
X178283Y175224D01*
X178176Y175172D01*
X178078Y175105D01*
X177992Y175023D01*
X177920Y174929D01*
X177864Y174824D01*
X177826Y174712D01*
X177700Y174294D01*
X177533Y173890D01*
X177331Y173502D01*
X177097Y173133D01*
X176831Y172787D01*
X176536Y172464D01*
X176522Y172452D01*
Y179548D01*
X176536Y179536D01*
X176831Y179213D01*
X177097Y178867D01*
X177331Y178498D01*
X177533Y178110D01*
X177700Y177706D01*
X177831Y177290D01*
X177868Y177178D01*
X177924Y177074D01*
X177996Y176980D01*
X178081Y176899D01*
X178179Y176832D01*
X178285Y176781D01*
X178398Y176747D01*
X178515Y176732D01*
X178633Y176735D01*
X178749Y176756D01*
X178861Y176795D01*
X178965Y176852D01*
X179058Y176924D01*
X179140Y177009D01*
X179207Y177106D01*
X179258Y177213D01*
X179291Y177326D01*
X179307Y177443D01*
X179304Y177561D01*
X179280Y177676D01*
X179116Y178221D01*
X178898Y178746D01*
X178636Y179250D01*
X178331Y179730D01*
X177985Y180181D01*
X177601Y180601D01*
X177181Y180985D01*
X176730Y181331D01*
X176522Y181463D01*
Y185470D01*
G37*
G36*
Y225000D02*X182990D01*
Y192519D01*
X181980Y192440D01*
X180985Y192201D01*
X180040Y191809D01*
X179168Y191275D01*
X178390Y190610D01*
X177725Y189832D01*
X177191Y188960D01*
X176799Y188015D01*
X176560Y187020D01*
X176522Y186530D01*
Y190537D01*
X176730Y190669D01*
X177181Y191015D01*
X177601Y191399D01*
X177985Y191819D01*
X178331Y192270D01*
X178636Y192750D01*
X178898Y193254D01*
X179116Y193779D01*
X179286Y194322D01*
X179308Y194439D01*
X179311Y194557D01*
X179296Y194675D01*
X179262Y194789D01*
X179211Y194896D01*
X179143Y194994D01*
X179062Y195080D01*
X178967Y195152D01*
X178863Y195209D01*
X178751Y195248D01*
X178634Y195270D01*
X178515Y195273D01*
X178397Y195257D01*
X178283Y195224D01*
X178176Y195172D01*
X178078Y195105D01*
X177992Y195023D01*
X177920Y194929D01*
X177864Y194824D01*
X177826Y194712D01*
X177700Y194294D01*
X177533Y193890D01*
X177331Y193502D01*
X177097Y193133D01*
X176831Y192787D01*
X176536Y192464D01*
X176522Y192452D01*
Y199548D01*
X176536Y199536D01*
X176831Y199213D01*
X177097Y198867D01*
X177331Y198498D01*
X177533Y198110D01*
X177700Y197706D01*
X177831Y197290D01*
X177868Y197178D01*
X177924Y197074D01*
X177996Y196980D01*
X178081Y196899D01*
X178179Y196832D01*
X178285Y196781D01*
X178398Y196747D01*
X178515Y196732D01*
X178633Y196735D01*
X178749Y196756D01*
X178861Y196795D01*
X178965Y196852D01*
X179058Y196924D01*
X179140Y197009D01*
X179207Y197106D01*
X179258Y197213D01*
X179291Y197326D01*
X179307Y197443D01*
X179304Y197561D01*
X179280Y197676D01*
X179116Y198221D01*
X178898Y198746D01*
X178636Y199250D01*
X178331Y199730D01*
X177985Y200181D01*
X177601Y200601D01*
X177181Y200985D01*
X176730Y201331D01*
X176522Y201463D01*
Y225000D01*
G37*
G36*
Y119000D02*X160414D01*
X159235Y120179D01*
X159209Y120209D01*
X159090Y120312D01*
X158955Y120394D01*
X158810Y120454D01*
X158657Y120491D01*
X158657Y120491D01*
X158500Y120503D01*
X158461Y120500D01*
X155414D01*
X154997Y120917D01*
Y148083D01*
X158679Y151765D01*
X158709Y151791D01*
X158811Y151910D01*
X158812Y151910D01*
X158894Y152045D01*
X158954Y152190D01*
X158991Y152343D01*
X159003Y152500D01*
X159000Y152539D01*
Y155502D01*
X159061Y155539D01*
X159277Y155723D01*
X159461Y155939D01*
X159498Y156000D01*
X173502D01*
X173539Y155939D01*
X173723Y155723D01*
X173939Y155539D01*
X174180Y155391D01*
X174442Y155283D01*
X174718Y155217D01*
X175000Y155194D01*
X175282Y155217D01*
X175558Y155283D01*
X175820Y155391D01*
X176061Y155539D01*
X176277Y155723D01*
X176461Y155939D01*
X176522Y156038D01*
Y119000D01*
G37*
G36*
X169478Y225000D02*X176522D01*
Y201463D01*
X176250Y201636D01*
X175746Y201898D01*
X175221Y202116D01*
X174678Y202286D01*
X174561Y202308D01*
X174443Y202311D01*
X174325Y202296D01*
X174211Y202262D01*
X174104Y202211D01*
X174006Y202143D01*
X173920Y202062D01*
X173848Y201967D01*
X173791Y201863D01*
X173752Y201751D01*
X173730Y201634D01*
X173727Y201515D01*
X173743Y201397D01*
X173776Y201283D01*
X173828Y201176D01*
X173895Y201078D01*
X173977Y200992D01*
X174071Y200920D01*
X174176Y200864D01*
X174288Y200826D01*
X174706Y200700D01*
X175110Y200533D01*
X175498Y200331D01*
X175867Y200097D01*
X176213Y199831D01*
X176522Y199548D01*
Y192452D01*
X176213Y192169D01*
X175867Y191903D01*
X175498Y191669D01*
X175110Y191467D01*
X174706Y191300D01*
X174290Y191169D01*
X174178Y191132D01*
X174074Y191076D01*
X173980Y191004D01*
X173899Y190919D01*
X173832Y190821D01*
X173781Y190715D01*
X173747Y190602D01*
X173732Y190485D01*
X173735Y190367D01*
X173756Y190251D01*
X173795Y190139D01*
X173852Y190035D01*
X173924Y189942D01*
X174009Y189860D01*
X174106Y189793D01*
X174213Y189742D01*
X174326Y189709D01*
X174443Y189693D01*
X174561Y189696D01*
X174676Y189720D01*
X175221Y189884D01*
X175746Y190102D01*
X176250Y190364D01*
X176522Y190537D01*
Y186530D01*
X176480Y186000D01*
X176522Y185470D01*
Y181463D01*
X176250Y181636D01*
X175746Y181898D01*
X175221Y182116D01*
X174678Y182286D01*
X174561Y182308D01*
X174443Y182311D01*
X174325Y182296D01*
X174211Y182262D01*
X174104Y182211D01*
X174006Y182143D01*
X173920Y182062D01*
X173848Y181967D01*
X173791Y181863D01*
X173752Y181751D01*
X173730Y181634D01*
X173727Y181515D01*
X173743Y181397D01*
X173776Y181283D01*
X173828Y181176D01*
X173895Y181078D01*
X173977Y180992D01*
X174071Y180920D01*
X174176Y180864D01*
X174288Y180826D01*
X174706Y180700D01*
X175110Y180533D01*
X175498Y180331D01*
X175867Y180097D01*
X176213Y179831D01*
X176522Y179548D01*
Y172452D01*
X176213Y172169D01*
X175867Y171903D01*
X175498Y171669D01*
X175110Y171467D01*
X174706Y171300D01*
X174290Y171169D01*
X174178Y171132D01*
X174074Y171076D01*
X173980Y171004D01*
X173899Y170919D01*
X173832Y170821D01*
X173781Y170715D01*
X173747Y170602D01*
X173732Y170485D01*
X173735Y170367D01*
X173756Y170251D01*
X173795Y170139D01*
X173852Y170035D01*
X173924Y169942D01*
X174009Y169860D01*
X174106Y169793D01*
X174213Y169742D01*
X174326Y169709D01*
X174443Y169693D01*
X174561Y169696D01*
X174676Y169720D01*
X175221Y169884D01*
X175746Y170102D01*
X176250Y170364D01*
X176522Y170537D01*
Y157962D01*
X176461Y158061D01*
X176277Y158277D01*
X176061Y158461D01*
X175820Y158609D01*
X175558Y158717D01*
X175282Y158783D01*
X175000Y158806D01*
X174718Y158783D01*
X174442Y158717D01*
X174180Y158609D01*
X173939Y158461D01*
X173723Y158277D01*
X173539Y158061D01*
X173502Y158000D01*
X169478D01*
Y170537D01*
X169750Y170364D01*
X170254Y170102D01*
X170779Y169884D01*
X171322Y169714D01*
X171439Y169692D01*
X171557Y169689D01*
X171675Y169704D01*
X171789Y169738D01*
X171896Y169789D01*
X171994Y169857D01*
X172080Y169938D01*
X172152Y170033D01*
X172209Y170137D01*
X172248Y170249D01*
X172270Y170366D01*
X172273Y170485D01*
X172257Y170603D01*
X172224Y170717D01*
X172172Y170824D01*
X172105Y170922D01*
X172023Y171008D01*
X171929Y171080D01*
X171824Y171136D01*
X171712Y171174D01*
X171294Y171300D01*
X170890Y171467D01*
X170502Y171669D01*
X170133Y171903D01*
X169787Y172169D01*
X169478Y172452D01*
Y179548D01*
X169787Y179831D01*
X170133Y180097D01*
X170502Y180331D01*
X170890Y180533D01*
X171294Y180700D01*
X171710Y180831D01*
X171822Y180868D01*
X171926Y180924D01*
X172020Y180996D01*
X172101Y181081D01*
X172168Y181179D01*
X172219Y181285D01*
X172253Y181398D01*
X172268Y181515D01*
X172265Y181633D01*
X172244Y181749D01*
X172205Y181861D01*
X172148Y181965D01*
X172076Y182058D01*
X171991Y182140D01*
X171894Y182207D01*
X171787Y182258D01*
X171674Y182291D01*
X171557Y182307D01*
X171439Y182304D01*
X171324Y182280D01*
X170779Y182116D01*
X170254Y181898D01*
X169750Y181636D01*
X169478Y181463D01*
Y190537D01*
X169750Y190364D01*
X170254Y190102D01*
X170779Y189884D01*
X171322Y189714D01*
X171439Y189692D01*
X171557Y189689D01*
X171675Y189704D01*
X171789Y189738D01*
X171896Y189789D01*
X171994Y189857D01*
X172080Y189938D01*
X172152Y190033D01*
X172209Y190137D01*
X172248Y190249D01*
X172270Y190366D01*
X172273Y190485D01*
X172257Y190603D01*
X172224Y190717D01*
X172172Y190824D01*
X172105Y190922D01*
X172023Y191008D01*
X171929Y191080D01*
X171824Y191136D01*
X171712Y191174D01*
X171294Y191300D01*
X170890Y191467D01*
X170502Y191669D01*
X170133Y191903D01*
X169787Y192169D01*
X169478Y192452D01*
Y199548D01*
X169787Y199831D01*
X170133Y200097D01*
X170502Y200331D01*
X170890Y200533D01*
X171294Y200700D01*
X171710Y200831D01*
X171822Y200868D01*
X171926Y200924D01*
X172020Y200996D01*
X172101Y201081D01*
X172168Y201179D01*
X172219Y201285D01*
X172253Y201398D01*
X172268Y201515D01*
X172265Y201633D01*
X172244Y201749D01*
X172205Y201861D01*
X172148Y201965D01*
X172076Y202058D01*
X171991Y202140D01*
X171894Y202207D01*
X171787Y202258D01*
X171674Y202291D01*
X171557Y202307D01*
X171439Y202304D01*
X171324Y202280D01*
X170779Y202116D01*
X170254Y201898D01*
X169750Y201636D01*
X169478Y201463D01*
Y225000D01*
G37*
G36*
X154997D02*X169478D01*
Y201463D01*
X169270Y201331D01*
X168819Y200985D01*
X168399Y200601D01*
X168015Y200181D01*
X167669Y199730D01*
X167364Y199250D01*
X167102Y198746D01*
X166884Y198221D01*
X166714Y197678D01*
X166692Y197561D01*
X166689Y197443D01*
X166704Y197325D01*
X166738Y197211D01*
X166789Y197104D01*
X166857Y197006D01*
X166938Y196920D01*
X167033Y196848D01*
X167137Y196791D01*
X167249Y196752D01*
X167366Y196730D01*
X167485Y196727D01*
X167603Y196743D01*
X167717Y196776D01*
X167824Y196828D01*
X167922Y196895D01*
X168008Y196977D01*
X168080Y197071D01*
X168136Y197176D01*
X168174Y197288D01*
X168300Y197706D01*
X168467Y198110D01*
X168669Y198498D01*
X168903Y198867D01*
X169169Y199213D01*
X169464Y199536D01*
X169478Y199548D01*
Y192452D01*
X169464Y192464D01*
X169169Y192787D01*
X168903Y193133D01*
X168669Y193502D01*
X168467Y193890D01*
X168300Y194294D01*
X168169Y194710D01*
X168132Y194822D01*
X168076Y194926D01*
X168004Y195020D01*
X167919Y195101D01*
X167821Y195168D01*
X167715Y195219D01*
X167602Y195253D01*
X167485Y195268D01*
X167367Y195265D01*
X167251Y195244D01*
X167139Y195205D01*
X167035Y195148D01*
X166942Y195076D01*
X166860Y194991D01*
X166793Y194894D01*
X166742Y194787D01*
X166709Y194674D01*
X166693Y194557D01*
X166696Y194439D01*
X166720Y194324D01*
X166884Y193779D01*
X167102Y193254D01*
X167364Y192750D01*
X167669Y192270D01*
X168015Y191819D01*
X168399Y191399D01*
X168819Y191015D01*
X169270Y190669D01*
X169478Y190537D01*
Y181463D01*
X169270Y181331D01*
X168819Y180985D01*
X168399Y180601D01*
X168015Y180181D01*
X167669Y179730D01*
X167364Y179250D01*
X167102Y178746D01*
X166884Y178221D01*
X166714Y177678D01*
X166692Y177561D01*
X166689Y177443D01*
X166704Y177325D01*
X166738Y177211D01*
X166789Y177104D01*
X166857Y177006D01*
X166938Y176920D01*
X167033Y176848D01*
X167137Y176791D01*
X167249Y176752D01*
X167366Y176730D01*
X167485Y176727D01*
X167603Y176743D01*
X167717Y176776D01*
X167824Y176828D01*
X167922Y176895D01*
X168008Y176977D01*
X168080Y177071D01*
X168136Y177176D01*
X168174Y177288D01*
X168300Y177706D01*
X168467Y178110D01*
X168669Y178498D01*
X168903Y178867D01*
X169169Y179213D01*
X169464Y179536D01*
X169478Y179548D01*
Y172452D01*
X169464Y172464D01*
X169169Y172787D01*
X168903Y173133D01*
X168669Y173502D01*
X168467Y173890D01*
X168300Y174294D01*
X168169Y174710D01*
X168132Y174822D01*
X168076Y174926D01*
X168004Y175020D01*
X167919Y175101D01*
X167821Y175168D01*
X167715Y175219D01*
X167602Y175253D01*
X167485Y175268D01*
X167367Y175265D01*
X167251Y175244D01*
X167139Y175205D01*
X167035Y175148D01*
X166942Y175076D01*
X166860Y174991D01*
X166793Y174894D01*
X166742Y174787D01*
X166709Y174674D01*
X166693Y174557D01*
X166696Y174439D01*
X166720Y174324D01*
X166884Y173779D01*
X167102Y173254D01*
X167364Y172750D01*
X167669Y172270D01*
X168015Y171819D01*
X168399Y171399D01*
X168819Y171015D01*
X169270Y170669D01*
X169478Y170537D01*
Y158000D01*
X159498D01*
X159461Y158061D01*
X159277Y158277D01*
X159061Y158461D01*
X159000Y158498D01*
Y180461D01*
X159003Y180500D01*
X158991Y180657D01*
X158991Y180657D01*
X158954Y180810D01*
X158894Y180955D01*
X158812Y181090D01*
X158709Y181209D01*
X158679Y181235D01*
X157235Y182679D01*
X157209Y182709D01*
X157090Y182811D01*
X157090Y182812D01*
X156955Y182894D01*
X156810Y182954D01*
X156657Y182991D01*
X156500Y183003D01*
X156461Y183000D01*
X155592D01*
X155586Y192835D01*
X155531Y193065D01*
X155441Y193283D01*
X155317Y193484D01*
X155164Y193664D01*
X154997Y193806D01*
Y207302D01*
X160110Y207306D01*
X160217Y207332D01*
X160319Y207374D01*
X160413Y207432D01*
X160496Y207504D01*
X160568Y207587D01*
X160626Y207681D01*
X160668Y207783D01*
X160694Y207890D01*
X160700Y208000D01*
X160694Y216110D01*
X160668Y216217D01*
X160626Y216319D01*
X160568Y216413D01*
X160496Y216496D01*
X160413Y216568D01*
X160319Y216626D01*
X160217Y216668D01*
X160110Y216694D01*
X160000Y216700D01*
X154997Y216696D01*
Y225000D01*
G37*
G36*
Y120917D02*X154500Y121414D01*
Y147586D01*
X154997Y148083D01*
Y120917D01*
G37*
G36*
X80833Y73952D02*X86107Y73959D01*
X86260Y73996D01*
X86405Y74056D01*
X86540Y74138D01*
X86659Y74241D01*
X86762Y74360D01*
X86844Y74495D01*
X86904Y74640D01*
X86941Y74793D01*
X86950Y74950D01*
X86947Y78000D01*
X92000D01*
Y68039D01*
X91997Y68000D01*
X92000Y67961D01*
Y43414D01*
X89586Y41000D01*
X86944D01*
X86941Y44207D01*
X86904Y44360D01*
X86844Y44505D01*
X86762Y44640D01*
X86659Y44759D01*
X86540Y44862D01*
X86405Y44944D01*
X86260Y45004D01*
X86107Y45041D01*
X85950Y45050D01*
X80833Y45043D01*
Y73952D01*
G37*
G36*
Y122914D02*X81000Y122511D01*
X81811Y121188D01*
X82819Y120008D01*
X83999Y119000D01*
X85322Y118189D01*
X86755Y117595D01*
X88264Y117233D01*
X89811Y117111D01*
X91358Y117233D01*
X92867Y117595D01*
X94300Y118189D01*
X95623Y119000D01*
X96803Y120008D01*
X97811Y121188D01*
X98622Y122511D01*
X99216Y123944D01*
X99578Y125453D01*
X99669Y127000D01*
X99578Y128547D01*
X99216Y130056D01*
X98622Y131489D01*
X97811Y132812D01*
X96803Y133992D01*
X95623Y135000D01*
X94300Y135811D01*
X92867Y136405D01*
X91358Y136767D01*
X90811Y136810D01*
Y141150D01*
X90814Y141189D01*
X90802Y141346D01*
X90802Y141346D01*
X90765Y141499D01*
X90705Y141644D01*
X90623Y141779D01*
X90520Y141898D01*
X90490Y141924D01*
X87735Y144679D01*
X87709Y144709D01*
X87590Y144812D01*
X87455Y144894D01*
X87310Y144954D01*
X87157Y144991D01*
X87157Y144991D01*
X87000Y145003D01*
X86961Y145000D01*
X80833D01*
Y150952D01*
X86107Y150959D01*
X86260Y150996D01*
X86405Y151056D01*
X86540Y151138D01*
X86659Y151241D01*
X86762Y151360D01*
X86844Y151495D01*
X86904Y151640D01*
X86941Y151793D01*
X86950Y151950D01*
X86947Y155000D01*
X92586D01*
X100500Y147086D01*
Y115914D01*
X92321Y107735D01*
X92291Y107709D01*
X92188Y107590D01*
X92106Y107455D01*
X92046Y107310D01*
X92009Y107157D01*
X92009Y107157D01*
X91997Y107000D01*
X92000Y106961D01*
Y80000D01*
X86944D01*
X86941Y83207D01*
X86904Y83360D01*
X86844Y83505D01*
X86762Y83640D01*
X86659Y83759D01*
X86540Y83862D01*
X86405Y83944D01*
X86260Y84004D01*
X86107Y84041D01*
X85950Y84050D01*
X80833Y84043D01*
Y98644D01*
X81056Y98698D01*
X82489Y99291D01*
X83812Y100102D01*
X84992Y101110D01*
X86000Y102290D01*
X86811Y103613D01*
X87405Y105047D01*
X87767Y106555D01*
X87858Y108102D01*
X87767Y109649D01*
X87405Y111158D01*
X86811Y112592D01*
X86000Y113915D01*
X84992Y115095D01*
X83812Y116102D01*
X82489Y116913D01*
X81056Y117507D01*
X80833Y117561D01*
Y122914D01*
G37*
G36*
Y143000D02*X86586D01*
X88811Y140775D01*
Y136810D01*
X88264Y136767D01*
X86755Y136405D01*
X85322Y135811D01*
X83999Y135000D01*
X82819Y133992D01*
X81811Y132812D01*
X81000Y131489D01*
X80833Y131086D01*
Y143000D01*
G37*
G36*
X145993Y40906D02*X153335Y40914D01*
X153565Y40969D01*
X153783Y41059D01*
X153984Y41183D01*
X154164Y41336D01*
X154317Y41516D01*
X154441Y41717D01*
X154531Y41935D01*
X154586Y42165D01*
X154600Y42400D01*
X154594Y52000D01*
X154997D01*
Y26593D01*
X154543Y26484D01*
X153860Y26201D01*
X153229Y25814D01*
X152666Y25334D01*
X152186Y24771D01*
X151799Y24140D01*
X151516Y23457D01*
X151344Y22738D01*
X151286Y22000D01*
X151344Y21262D01*
X151516Y20543D01*
X151799Y19860D01*
X152186Y19229D01*
X152666Y18666D01*
X153229Y18186D01*
X153860Y17799D01*
X154543Y17516D01*
X154997Y17407D01*
Y9000D01*
X145993D01*
Y17286D01*
X146000Y17286D01*
X146738Y17344D01*
X147457Y17516D01*
X148140Y17799D01*
X148771Y18186D01*
X149334Y18666D01*
X149814Y19229D01*
X150201Y19860D01*
X150484Y20543D01*
X150656Y21262D01*
X150700Y22000D01*
X150656Y22738D01*
X150484Y23457D01*
X150201Y24140D01*
X149814Y24771D01*
X149334Y25334D01*
X148771Y25814D01*
X148140Y26201D01*
X147457Y26484D01*
X146738Y26656D01*
X146000Y26714D01*
X145993Y26714D01*
Y40906D01*
G37*
G36*
Y80905D02*X154335Y80914D01*
X154565Y80969D01*
X154783Y81059D01*
X154984Y81183D01*
X154997Y81194D01*
Y54000D01*
X154592D01*
X154586Y63835D01*
X154531Y64065D01*
X154441Y64283D01*
X154317Y64484D01*
X154164Y64664D01*
X153984Y64817D01*
X153783Y64941D01*
X153565Y65031D01*
X153335Y65086D01*
X153100Y65100D01*
X145993Y65092D01*
Y80905D01*
G37*
G36*
Y118500D02*X146586D01*
X147500Y117586D01*
Y105093D01*
X145993Y105091D01*
Y118500D01*
G37*
G36*
Y153497D02*X146061Y153539D01*
X146277Y153723D01*
X146461Y153939D01*
X146498Y154000D01*
X146586D01*
X147500Y153086D01*
Y121039D01*
X147497Y121000D01*
X147509Y120843D01*
Y120843D01*
X147516Y120813D01*
X147546Y120690D01*
X147606Y120545D01*
X147688Y120410D01*
X147689Y120410D01*
X147791Y120291D01*
X147821Y120265D01*
X149265Y118821D01*
X149291Y118791D01*
X149410Y118689D01*
X149410Y118688D01*
X149545Y118606D01*
X149690Y118546D01*
X149843Y118509D01*
X150000Y118497D01*
X150039Y118500D01*
X151586D01*
X152500Y117586D01*
Y108539D01*
X152497Y108500D01*
X152509Y108343D01*
Y108343D01*
X152516Y108313D01*
X152546Y108190D01*
X152606Y108045D01*
X152688Y107910D01*
X152689Y107910D01*
X152791Y107791D01*
X152821Y107765D01*
X154265Y106321D01*
X154291Y106291D01*
X154410Y106189D01*
X154410Y106188D01*
X154545Y106106D01*
X154690Y106046D01*
X154843Y106009D01*
X154997Y105997D01*
Y104806D01*
X154984Y104817D01*
X154783Y104941D01*
X154565Y105031D01*
X154335Y105086D01*
X154100Y105100D01*
X149500Y105095D01*
Y117961D01*
X149503Y118000D01*
X149491Y118157D01*
X149491Y118157D01*
X149454Y118310D01*
X149394Y118455D01*
X149312Y118590D01*
X149209Y118709D01*
X149179Y118735D01*
X147735Y120179D01*
X147709Y120209D01*
X147590Y120312D01*
X147455Y120394D01*
X147310Y120454D01*
X147157Y120491D01*
X147157Y120491D01*
X147000Y120503D01*
X146961Y120500D01*
X145993D01*
Y153497D01*
G37*
G36*
Y169905D02*X154335Y169914D01*
X154565Y169969D01*
X154783Y170059D01*
X154984Y170183D01*
X154997Y170194D01*
Y150911D01*
X152821Y148735D01*
X152791Y148709D01*
X152688Y148590D01*
X152606Y148455D01*
X152546Y148310D01*
X152509Y148157D01*
X152509Y148157D01*
X152497Y148000D01*
X152500Y147961D01*
Y121039D01*
X152497Y121000D01*
X152509Y120843D01*
X152546Y120690D01*
X152606Y120545D01*
X152688Y120410D01*
X152689Y120410D01*
X152791Y120291D01*
X152821Y120265D01*
X154265Y118821D01*
X154291Y118791D01*
X154410Y118689D01*
X154410Y118688D01*
X154545Y118606D01*
X154690Y118546D01*
X154813Y118516D01*
X154843Y118509D01*
X154843D01*
X154997Y118497D01*
Y108417D01*
X154500Y108914D01*
Y117961D01*
X154503Y118000D01*
X154491Y118157D01*
X154491Y118157D01*
X154454Y118310D01*
X154394Y118455D01*
X154312Y118590D01*
X154209Y118709D01*
X154179Y118735D01*
X152735Y120179D01*
X152709Y120209D01*
X152590Y120311D01*
X152590Y120312D01*
X152455Y120394D01*
X152310Y120454D01*
X152157Y120491D01*
X152000Y120503D01*
X151961Y120500D01*
X150414D01*
X149500Y121414D01*
Y153461D01*
X149503Y153500D01*
X149491Y153657D01*
X149491Y153657D01*
X149454Y153810D01*
X149394Y153955D01*
X149312Y154090D01*
X149209Y154209D01*
X149179Y154235D01*
X147735Y155679D01*
X147709Y155709D01*
X147590Y155811D01*
X147590Y155812D01*
X147455Y155894D01*
X147310Y155954D01*
X147157Y155991D01*
X147000Y156003D01*
X146961Y156000D01*
X146498D01*
X146461Y156061D01*
X146277Y156277D01*
X146061Y156461D01*
X145993Y156503D01*
Y169905D01*
G37*
G36*
Y225000D02*X154997D01*
Y216696D01*
X151890Y216694D01*
X151783Y216668D01*
X151681Y216626D01*
X151587Y216568D01*
X151504Y216496D01*
X151432Y216413D01*
X151374Y216319D01*
X151332Y216217D01*
X151306Y216110D01*
X151300Y216000D01*
X151306Y207890D01*
X151332Y207783D01*
X151374Y207681D01*
X151432Y207587D01*
X151504Y207504D01*
X151587Y207432D01*
X151681Y207374D01*
X151783Y207332D01*
X151890Y207306D01*
X152000Y207300D01*
X154997Y207302D01*
Y193806D01*
X154984Y193817D01*
X154783Y193941D01*
X154565Y194031D01*
X154335Y194086D01*
X154100Y194100D01*
X145993Y194091D01*
Y207286D01*
X146000Y207286D01*
X146738Y207344D01*
X147457Y207516D01*
X148140Y207799D01*
X148771Y208186D01*
X149334Y208666D01*
X149814Y209229D01*
X150201Y209860D01*
X150484Y210543D01*
X150656Y211262D01*
X150700Y212000D01*
X150656Y212738D01*
X150484Y213457D01*
X150201Y214140D01*
X149814Y214771D01*
X149334Y215334D01*
X148771Y215814D01*
X148140Y216201D01*
X147457Y216484D01*
X146738Y216656D01*
X146000Y216714D01*
X145993Y216714D01*
Y225000D01*
G37*
G36*
X135993Y52000D02*X139408D01*
X139414Y42165D01*
X139469Y41935D01*
X139559Y41717D01*
X139683Y41516D01*
X139836Y41336D01*
X140016Y41183D01*
X140217Y41059D01*
X140435Y40969D01*
X140665Y40914D01*
X140900Y40900D01*
X145993Y40906D01*
Y26714D01*
X145262Y26656D01*
X144543Y26484D01*
X143860Y26201D01*
X143229Y25814D01*
X142666Y25334D01*
X142186Y24771D01*
X141799Y24140D01*
X141516Y23457D01*
X141344Y22738D01*
X141286Y22000D01*
X141344Y21262D01*
X141516Y20543D01*
X141799Y19860D01*
X142186Y19229D01*
X142666Y18666D01*
X143229Y18186D01*
X143860Y17799D01*
X144543Y17516D01*
X145262Y17344D01*
X145993Y17286D01*
Y9000D01*
X135993D01*
Y17286D01*
X136000Y17286D01*
X136738Y17344D01*
X137457Y17516D01*
X138140Y17799D01*
X138771Y18186D01*
X139334Y18666D01*
X139814Y19229D01*
X140201Y19860D01*
X140484Y20543D01*
X140656Y21262D01*
X140700Y22000D01*
X140656Y22738D01*
X140484Y23457D01*
X140201Y24140D01*
X139814Y24771D01*
X139334Y25334D01*
X138771Y25814D01*
X138140Y26201D01*
X137457Y26484D01*
X136738Y26656D01*
X136000Y26714D01*
X135993Y26714D01*
Y52000D01*
G37*
G36*
Y92000D02*X140408D01*
X140414Y82165D01*
X140469Y81935D01*
X140559Y81717D01*
X140683Y81516D01*
X140836Y81336D01*
X141016Y81183D01*
X141217Y81059D01*
X141435Y80969D01*
X141665Y80914D01*
X141900Y80900D01*
X145993Y80905D01*
Y65092D01*
X140665Y65086D01*
X140435Y65031D01*
X140217Y64941D01*
X140016Y64817D01*
X139836Y64664D01*
X139683Y64484D01*
X139559Y64283D01*
X139469Y64065D01*
X139414Y63835D01*
X139400Y63600D01*
X139406Y54000D01*
X135993D01*
Y92000D01*
G37*
G36*
Y118500D02*X145993D01*
Y105091D01*
X141665Y105086D01*
X141435Y105031D01*
X141217Y104941D01*
X141016Y104817D01*
X140836Y104664D01*
X140683Y104484D01*
X140559Y104283D01*
X140469Y104065D01*
X140414Y103835D01*
X140400Y103600D01*
X140406Y94000D01*
X135993D01*
Y118500D01*
G37*
G36*
Y181000D02*X140408D01*
X140414Y171165D01*
X140469Y170935D01*
X140559Y170717D01*
X140683Y170516D01*
X140836Y170336D01*
X141016Y170183D01*
X141217Y170059D01*
X141435Y169969D01*
X141665Y169914D01*
X141900Y169900D01*
X145993Y169905D01*
Y156503D01*
X145820Y156609D01*
X145558Y156717D01*
X145282Y156783D01*
X145000Y156806D01*
X144718Y156783D01*
X144442Y156717D01*
X144180Y156609D01*
X143939Y156461D01*
X143723Y156277D01*
X143539Y156061D01*
X143391Y155820D01*
X143283Y155558D01*
X143217Y155282D01*
X143194Y155000D01*
X143217Y154718D01*
X143283Y154442D01*
X143391Y154180D01*
X143539Y153939D01*
X143723Y153723D01*
X143939Y153539D01*
X144180Y153391D01*
X144442Y153283D01*
X144718Y153217D01*
X145000Y153194D01*
X145282Y153217D01*
X145558Y153283D01*
X145820Y153391D01*
X145993Y153497D01*
Y120500D01*
X135993D01*
Y181000D01*
G37*
G36*
Y225000D02*X145993D01*
Y216714D01*
X145262Y216656D01*
X144543Y216484D01*
X143860Y216201D01*
X143229Y215814D01*
X142666Y215334D01*
X142186Y214771D01*
X141799Y214140D01*
X141516Y213457D01*
X141344Y212738D01*
X141286Y212000D01*
X141344Y211262D01*
X141516Y210543D01*
X141799Y209860D01*
X142186Y209229D01*
X142666Y208666D01*
X143229Y208186D01*
X143860Y207799D01*
X144543Y207516D01*
X145262Y207344D01*
X145993Y207286D01*
Y194091D01*
X141665Y194086D01*
X141435Y194031D01*
X141217Y193941D01*
X141016Y193817D01*
X140836Y193664D01*
X140683Y193484D01*
X140559Y193283D01*
X140469Y193065D01*
X140414Y192835D01*
X140400Y192600D01*
X140406Y183000D01*
X135993D01*
Y207286D01*
X136000Y207286D01*
X136738Y207344D01*
X137457Y207516D01*
X138140Y207799D01*
X138771Y208186D01*
X139334Y208666D01*
X139814Y209229D01*
X140201Y209860D01*
X140484Y210543D01*
X140656Y211262D01*
X140700Y212000D01*
X140656Y212738D01*
X140484Y213457D01*
X140201Y214140D01*
X139814Y214771D01*
X139334Y215334D01*
X138771Y215814D01*
X138140Y216201D01*
X137457Y216484D01*
X136738Y216656D01*
X136000Y216714D01*
X135993Y216714D01*
Y225000D01*
G37*
G36*
X125993Y49778D02*X128767Y49779D01*
X128832Y49795D01*
X128894Y49820D01*
X128951Y49855D01*
X129001Y49899D01*
X129045Y49949D01*
X129080Y50006D01*
X129105Y50068D01*
X129121Y50133D01*
X129125Y50200D01*
X129124Y52000D01*
X135993D01*
Y26714D01*
X135262Y26656D01*
X134543Y26484D01*
X133860Y26201D01*
X133229Y25814D01*
X132666Y25334D01*
X132186Y24771D01*
X131799Y24140D01*
X131516Y23457D01*
X131344Y22738D01*
X131286Y22000D01*
X131344Y21262D01*
X131516Y20543D01*
X131799Y19860D01*
X132186Y19229D01*
X132666Y18666D01*
X133229Y18186D01*
X133860Y17799D01*
X134543Y17516D01*
X135262Y17344D01*
X135993Y17286D01*
Y9000D01*
X125993D01*
Y17286D01*
X126000Y17286D01*
X126738Y17344D01*
X127457Y17516D01*
X128140Y17799D01*
X128771Y18186D01*
X129334Y18666D01*
X129814Y19229D01*
X130201Y19860D01*
X130484Y20543D01*
X130656Y21262D01*
X130700Y22000D01*
X130656Y22738D01*
X130484Y23457D01*
X130201Y24140D01*
X129814Y24771D01*
X129334Y25334D01*
X128771Y25814D01*
X128140Y26201D01*
X127457Y26484D01*
X126738Y26656D01*
X126000Y26714D01*
X125993Y26714D01*
Y49778D01*
G37*
G36*
Y89778D02*X129767Y89779D01*
X129832Y89795D01*
X129894Y89820D01*
X129951Y89855D01*
X130001Y89899D01*
X130045Y89949D01*
X130080Y90006D01*
X130105Y90068D01*
X130121Y90133D01*
X130125Y90200D01*
X130124Y92000D01*
X135993D01*
Y54000D01*
X129122D01*
X129121Y55867D01*
X129105Y55932D01*
X129080Y55994D01*
X129045Y56051D01*
X129001Y56101D01*
X128951Y56145D01*
X128894Y56180D01*
X128832Y56205D01*
X128767Y56221D01*
X128700Y56225D01*
X125993Y56224D01*
Y58878D01*
X128767Y58879D01*
X128832Y58895D01*
X128894Y58920D01*
X128951Y58955D01*
X129001Y58999D01*
X129045Y59049D01*
X129080Y59106D01*
X129105Y59168D01*
X129121Y59233D01*
X129125Y59300D01*
X129121Y64967D01*
X129105Y65032D01*
X129080Y65094D01*
X129045Y65151D01*
X129001Y65201D01*
X128951Y65245D01*
X128894Y65280D01*
X128832Y65305D01*
X128767Y65321D01*
X128700Y65325D01*
X125993Y65324D01*
Y89778D01*
G37*
G36*
Y115000D02*X127961D01*
X128000Y114997D01*
X128157Y115009D01*
X128157Y115009D01*
X128310Y115046D01*
X128455Y115106D01*
X128590Y115188D01*
X128709Y115291D01*
X128735Y115321D01*
X131914Y118500D01*
X135993D01*
Y94000D01*
X130122D01*
X130121Y95867D01*
X130105Y95932D01*
X130080Y95994D01*
X130045Y96051D01*
X130001Y96101D01*
X129951Y96145D01*
X129894Y96180D01*
X129832Y96205D01*
X129767Y96221D01*
X129700Y96225D01*
X125993Y96224D01*
Y98878D01*
X129767Y98879D01*
X129832Y98895D01*
X129894Y98920D01*
X129951Y98955D01*
X130001Y98999D01*
X130045Y99049D01*
X130080Y99106D01*
X130105Y99168D01*
X130121Y99233D01*
X130125Y99300D01*
X130121Y104967D01*
X130105Y105032D01*
X130080Y105094D01*
X130045Y105151D01*
X130001Y105201D01*
X129951Y105245D01*
X129894Y105280D01*
X129832Y105305D01*
X129767Y105321D01*
X129700Y105325D01*
X125993Y105324D01*
Y115000D01*
G37*
G36*
Y178778D02*X129767Y178779D01*
X129832Y178795D01*
X129894Y178820D01*
X129951Y178855D01*
X130001Y178899D01*
X130045Y178949D01*
X130080Y179006D01*
X130105Y179068D01*
X130121Y179133D01*
X130125Y179200D01*
X130124Y181000D01*
X135993D01*
Y120500D01*
X131539D01*
X131500Y120503D01*
X131343Y120491D01*
X131190Y120454D01*
X131045Y120394D01*
X130910Y120312D01*
X130910Y120311D01*
X130791Y120209D01*
X130765Y120179D01*
X127586Y117000D01*
X125993D01*
Y178778D01*
G37*
G36*
Y225000D02*X135993D01*
Y216714D01*
X135262Y216656D01*
X134543Y216484D01*
X133860Y216201D01*
X133229Y215814D01*
X132666Y215334D01*
X132186Y214771D01*
X131799Y214140D01*
X131516Y213457D01*
X131344Y212738D01*
X131286Y212000D01*
X131344Y211262D01*
X131516Y210543D01*
X131799Y209860D01*
X132186Y209229D01*
X132666Y208666D01*
X133229Y208186D01*
X133860Y207799D01*
X134543Y207516D01*
X135262Y207344D01*
X135993Y207286D01*
Y183000D01*
X130122D01*
X130121Y184867D01*
X130105Y184932D01*
X130080Y184994D01*
X130045Y185051D01*
X130001Y185101D01*
X129951Y185145D01*
X129894Y185180D01*
X129832Y185205D01*
X129767Y185221D01*
X129700Y185225D01*
X125993Y185224D01*
Y187878D01*
X129767Y187879D01*
X129832Y187895D01*
X129894Y187920D01*
X129951Y187955D01*
X130001Y187999D01*
X130045Y188049D01*
X130080Y188106D01*
X130105Y188168D01*
X130121Y188233D01*
X130125Y188300D01*
X130121Y193967D01*
X130105Y194032D01*
X130080Y194094D01*
X130045Y194151D01*
X130001Y194201D01*
X129951Y194245D01*
X129894Y194280D01*
X129832Y194305D01*
X129767Y194321D01*
X129700Y194325D01*
X125993Y194324D01*
Y207286D01*
X126000Y207286D01*
X126738Y207344D01*
X127457Y207516D01*
X128140Y207799D01*
X128771Y208186D01*
X129334Y208666D01*
X129814Y209229D01*
X130201Y209860D01*
X130484Y210543D01*
X130656Y211262D01*
X130700Y212000D01*
X130656Y212738D01*
X130484Y213457D01*
X130201Y214140D01*
X129814Y214771D01*
X129334Y215334D01*
X128771Y215814D01*
X128140Y216201D01*
X127457Y216484D01*
X126738Y216656D01*
X126000Y216714D01*
X125993Y216714D01*
Y225000D01*
G37*
G36*
X115993Y52000D02*X116078D01*
X116079Y50133D01*
X116095Y50068D01*
X116120Y50006D01*
X116155Y49949D01*
X116199Y49899D01*
X116249Y49855D01*
X116306Y49820D01*
X116368Y49795D01*
X116433Y49779D01*
X116500Y49775D01*
X125993Y49778D01*
Y26714D01*
X125262Y26656D01*
X124543Y26484D01*
X123860Y26201D01*
X123229Y25814D01*
X122666Y25334D01*
X122186Y24771D01*
X121799Y24140D01*
X121516Y23457D01*
X121344Y22738D01*
X121286Y22000D01*
X121344Y21262D01*
X121516Y20543D01*
X121799Y19860D01*
X122186Y19229D01*
X122666Y18666D01*
X123229Y18186D01*
X123860Y17799D01*
X124543Y17516D01*
X125262Y17344D01*
X125993Y17286D01*
Y9000D01*
X115993D01*
Y17286D01*
X116000Y17286D01*
X116738Y17344D01*
X117457Y17516D01*
X118140Y17799D01*
X118771Y18186D01*
X119334Y18666D01*
X119814Y19229D01*
X120201Y19860D01*
X120484Y20543D01*
X120656Y21262D01*
X120700Y22000D01*
X120656Y22738D01*
X120484Y23457D01*
X120201Y24140D01*
X119814Y24771D01*
X119334Y25334D01*
X118771Y25814D01*
X118140Y26201D01*
X117457Y26484D01*
X116738Y26656D01*
X116000Y26714D01*
X115993Y26714D01*
Y52000D01*
G37*
G36*
X125993Y56224D02*X116433Y56221D01*
X116368Y56205D01*
X116306Y56180D01*
X116249Y56145D01*
X116199Y56101D01*
X116155Y56051D01*
X116120Y55994D01*
X116095Y55932D01*
X116079Y55867D01*
X116075Y55800D01*
X116076Y54000D01*
X115993D01*
Y61100D01*
X116078D01*
X116079Y59233D01*
X116095Y59168D01*
X116120Y59106D01*
X116155Y59049D01*
X116199Y58999D01*
X116249Y58955D01*
X116306Y58920D01*
X116368Y58895D01*
X116433Y58879D01*
X116500Y58875D01*
X125993Y58878D01*
Y56224D01*
G37*
G36*
X105993Y67000D02*X109586D01*
X111000Y65586D01*
Y63000D01*
X109457D01*
X109456Y64035D01*
X109440Y64100D01*
X109415Y64162D01*
X109380Y64219D01*
X109336Y64269D01*
X109286Y64313D01*
X109229Y64348D01*
X109167Y64373D01*
X109102Y64389D01*
X109035Y64393D01*
X106016Y64389D01*
X105993Y64383D01*
Y67000D01*
G37*
G36*
Y50617D02*X106016Y50611D01*
X106083Y50607D01*
X109102Y50611D01*
X109167Y50627D01*
X109229Y50652D01*
X109286Y50687D01*
X109336Y50731D01*
X109380Y50781D01*
X109415Y50838D01*
X109440Y50900D01*
X109456Y50965D01*
X109460Y51032D01*
X109459Y52000D01*
X115993D01*
Y26714D01*
X115262Y26656D01*
X114543Y26484D01*
X113860Y26201D01*
X113229Y25814D01*
X112666Y25334D01*
X112186Y24771D01*
X111799Y24140D01*
X111516Y23457D01*
X111344Y22738D01*
X111286Y22000D01*
X111344Y21262D01*
X111516Y20543D01*
X111799Y19860D01*
X112186Y19229D01*
X112666Y18666D01*
X113229Y18186D01*
X113860Y17799D01*
X114543Y17516D01*
X115262Y17344D01*
X115993Y17286D01*
Y9000D01*
X105993D01*
Y17286D01*
X106000Y17286D01*
X106738Y17344D01*
X107457Y17516D01*
X108140Y17799D01*
X108771Y18186D01*
X109334Y18666D01*
X109814Y19229D01*
X110201Y19860D01*
X110484Y20543D01*
X110656Y21262D01*
X110700Y22000D01*
X110656Y22738D01*
X110484Y23457D01*
X110201Y24140D01*
X109814Y24771D01*
X109334Y25334D01*
X108771Y25814D01*
X108140Y26201D01*
X107457Y26484D01*
X106738Y26656D01*
X106000Y26714D01*
X105993Y26714D01*
Y50617D01*
G37*
G36*
X115993Y54000D02*X109457D01*
X109456Y55035D01*
X109440Y55100D01*
X109415Y55162D01*
X109380Y55219D01*
X109336Y55269D01*
X109286Y55313D01*
X109229Y55348D01*
X109167Y55373D01*
X109102Y55389D01*
X109035Y55393D01*
X106016Y55389D01*
X105993Y55383D01*
Y59617D01*
X106016Y59611D01*
X106083Y59607D01*
X109102Y59611D01*
X109167Y59627D01*
X109229Y59652D01*
X109286Y59687D01*
X109336Y59731D01*
X109380Y59781D01*
X109415Y59838D01*
X109440Y59900D01*
X109456Y59965D01*
X109460Y60032D01*
X109459Y61000D01*
X111961D01*
X112000Y60997D01*
X112157Y61009D01*
X112157Y61009D01*
X112310Y61046D01*
X112440Y61100D01*
X115993D01*
Y54000D01*
G37*
G36*
X102441Y18930D02*X102666Y18666D01*
X103229Y18186D01*
X103860Y17799D01*
X104543Y17516D01*
X105262Y17344D01*
X105993Y17286D01*
Y9000D01*
X102441D01*
Y18930D01*
G37*
G36*
X105993Y55383D02*X105951Y55373D01*
X105889Y55348D01*
X105832Y55313D01*
X105782Y55269D01*
X105738Y55219D01*
X105703Y55162D01*
X105678Y55100D01*
X105662Y55035D01*
X105658Y54968D01*
X105662Y50965D01*
X105678Y50900D01*
X105703Y50838D01*
X105738Y50781D01*
X105782Y50731D01*
X105832Y50687D01*
X105889Y50652D01*
X105951Y50627D01*
X105993Y50617D01*
Y26714D01*
X105262Y26656D01*
X104543Y26484D01*
X103860Y26201D01*
X103229Y25814D01*
X102666Y25334D01*
X102441Y25070D01*
Y50609D01*
X103984Y50611D01*
X104049Y50627D01*
X104111Y50652D01*
X104168Y50687D01*
X104218Y50731D01*
X104262Y50781D01*
X104297Y50838D01*
X104322Y50900D01*
X104338Y50965D01*
X104342Y51032D01*
X104338Y55035D01*
X104322Y55100D01*
X104297Y55162D01*
X104262Y55219D01*
X104218Y55269D01*
X104168Y55313D01*
X104111Y55348D01*
X104049Y55373D01*
X103984Y55389D01*
X103917Y55393D01*
X102441Y55391D01*
Y59609D01*
X103984Y59611D01*
X104049Y59627D01*
X104111Y59652D01*
X104168Y59687D01*
X104218Y59731D01*
X104262Y59781D01*
X104297Y59838D01*
X104322Y59900D01*
X104338Y59965D01*
X104342Y60032D01*
X104338Y64035D01*
X104322Y64100D01*
X104297Y64162D01*
X104262Y64219D01*
X104218Y64269D01*
X104168Y64313D01*
X104111Y64348D01*
X104049Y64373D01*
X103984Y64389D01*
X103917Y64393D01*
X102441Y64391D01*
Y67000D01*
X105993D01*
Y64383D01*
X105951Y64373D01*
X105889Y64348D01*
X105832Y64313D01*
X105782Y64269D01*
X105738Y64219D01*
X105703Y64162D01*
X105678Y64100D01*
X105662Y64035D01*
X105658Y63968D01*
X105662Y59965D01*
X105678Y59900D01*
X105703Y59838D01*
X105738Y59781D01*
X105782Y59731D01*
X105832Y59687D01*
X105889Y59652D01*
X105951Y59627D01*
X105993Y59617D01*
Y55383D01*
G37*
G36*
X102441Y25070D02*X102186Y24771D01*
X101799Y24140D01*
X101516Y23457D01*
X101344Y22738D01*
X101286Y22000D01*
X101344Y21262D01*
X101516Y20543D01*
X101799Y19860D01*
X102186Y19229D01*
X102441Y18930D01*
Y9000D01*
X80833D01*
Y29000D01*
X83586D01*
X85000Y27586D01*
Y26593D01*
X84543Y26484D01*
X83860Y26201D01*
X83229Y25814D01*
X82666Y25334D01*
X82186Y24771D01*
X81799Y24140D01*
X81516Y23457D01*
X81344Y22738D01*
X81286Y22000D01*
X81344Y21262D01*
X81516Y20543D01*
X81799Y19860D01*
X82186Y19229D01*
X82666Y18666D01*
X83229Y18186D01*
X83860Y17799D01*
X84543Y17516D01*
X85262Y17344D01*
X86000Y17286D01*
X86738Y17344D01*
X87457Y17516D01*
X88140Y17799D01*
X88771Y18186D01*
X89334Y18666D01*
X89814Y19229D01*
X90201Y19860D01*
X90484Y20543D01*
X90656Y21262D01*
X90700Y22000D01*
X90656Y22738D01*
X90484Y23457D01*
X90201Y24140D01*
X89814Y24771D01*
X89334Y25334D01*
X88771Y25814D01*
X88140Y26201D01*
X87457Y26484D01*
X87000Y26593D01*
Y27961D01*
X87003Y28000D01*
X86991Y28157D01*
X86991Y28157D01*
X86954Y28310D01*
X86894Y28455D01*
X86812Y28590D01*
X86709Y28709D01*
X86679Y28735D01*
X84735Y30679D01*
X84709Y30709D01*
X84590Y30812D01*
X84455Y30894D01*
X84310Y30954D01*
X84157Y30991D01*
X84157Y30991D01*
X84000Y31003D01*
X83961Y31000D01*
X80833D01*
Y34952D01*
X86107Y34959D01*
X86260Y34996D01*
X86405Y35056D01*
X86540Y35138D01*
X86659Y35241D01*
X86762Y35360D01*
X86844Y35495D01*
X86904Y35640D01*
X86941Y35793D01*
X86950Y35950D01*
X86947Y39000D01*
X89961D01*
X90000Y38997D01*
X90157Y39009D01*
X90157Y39009D01*
X90310Y39046D01*
X90455Y39106D01*
X90590Y39188D01*
X90709Y39291D01*
X90735Y39321D01*
X93679Y42265D01*
X93709Y42291D01*
X93811Y42410D01*
X93812Y42410D01*
X93894Y42545D01*
X93954Y42690D01*
X93991Y42843D01*
X94003Y43000D01*
X94000Y43039D01*
Y67000D01*
X102441D01*
Y64391D01*
X100898Y64389D01*
X100833Y64373D01*
X100771Y64348D01*
X100714Y64313D01*
X100664Y64269D01*
X100620Y64219D01*
X100585Y64162D01*
X100560Y64100D01*
X100544Y64035D01*
X100540Y63968D01*
X100544Y59965D01*
X100560Y59900D01*
X100585Y59838D01*
X100620Y59781D01*
X100664Y59731D01*
X100714Y59687D01*
X100771Y59652D01*
X100833Y59627D01*
X100898Y59611D01*
X100965Y59607D01*
X102441Y59609D01*
Y55391D01*
X100898Y55389D01*
X100833Y55373D01*
X100771Y55348D01*
X100714Y55313D01*
X100664Y55269D01*
X100620Y55219D01*
X100585Y55162D01*
X100560Y55100D01*
X100544Y55035D01*
X100540Y54968D01*
X100544Y50965D01*
X100560Y50900D01*
X100585Y50838D01*
X100620Y50781D01*
X100664Y50731D01*
X100714Y50687D01*
X100771Y50652D01*
X100833Y50627D01*
X100898Y50611D01*
X100965Y50607D01*
X102441Y50609D01*
Y25070D01*
G37*
G36*
X125993Y96224D02*X117433Y96221D01*
X117368Y96205D01*
X117306Y96180D01*
X117249Y96145D01*
X117199Y96101D01*
X117155Y96051D01*
X117120Y95994D01*
X117095Y95932D01*
X117079Y95867D01*
X117075Y95800D01*
X117076Y94000D01*
X114498D01*
X114461Y94061D01*
X114277Y94277D01*
X114061Y94461D01*
X113820Y94609D01*
X113558Y94717D01*
X113282Y94783D01*
X113000Y94806D01*
X112718Y94783D01*
X112442Y94717D01*
X112180Y94609D01*
X111939Y94461D01*
X111723Y94277D01*
X111539Y94061D01*
X111502Y94000D01*
X109457D01*
X109456Y95035D01*
X109440Y95100D01*
X109415Y95162D01*
X109380Y95219D01*
X109336Y95269D01*
X109286Y95313D01*
X109229Y95348D01*
X109167Y95373D01*
X109102Y95389D01*
X109035Y95393D01*
X106016Y95389D01*
X105951Y95373D01*
X105889Y95348D01*
X105832Y95313D01*
X105782Y95269D01*
X105738Y95219D01*
X105703Y95162D01*
X105678Y95100D01*
X105662Y95035D01*
X105658Y94968D01*
X105662Y90965D01*
X105678Y90900D01*
X105703Y90838D01*
X105738Y90781D01*
X105782Y90731D01*
X105832Y90687D01*
X105889Y90652D01*
X105951Y90627D01*
X106016Y90611D01*
X106083Y90607D01*
X109102Y90611D01*
X109167Y90627D01*
X109229Y90652D01*
X109286Y90687D01*
X109336Y90731D01*
X109380Y90781D01*
X109415Y90838D01*
X109440Y90900D01*
X109456Y90965D01*
X109460Y91032D01*
X109459Y92000D01*
X111502D01*
X111539Y91939D01*
X111723Y91723D01*
X111939Y91539D01*
X112180Y91391D01*
X112442Y91283D01*
X112718Y91217D01*
X113000Y91194D01*
X113282Y91217D01*
X113558Y91283D01*
X113820Y91391D01*
X114061Y91539D01*
X114277Y91723D01*
X114461Y91939D01*
X114498Y92000D01*
X117078D01*
X117079Y90133D01*
X117095Y90068D01*
X117120Y90006D01*
X117155Y89949D01*
X117199Y89899D01*
X117249Y89855D01*
X117306Y89820D01*
X117368Y89795D01*
X117433Y89779D01*
X117500Y89775D01*
X125993Y89778D01*
Y65324D01*
X116433Y65321D01*
X116368Y65305D01*
X116306Y65280D01*
X116249Y65245D01*
X116199Y65201D01*
X116155Y65151D01*
X116120Y65094D01*
X116095Y65032D01*
X116079Y64967D01*
X116075Y64900D01*
X116076Y63100D01*
X113000D01*
Y65961D01*
X113003Y66000D01*
X112991Y66157D01*
X112991Y66157D01*
X112954Y66310D01*
X112894Y66455D01*
X112812Y66590D01*
X112709Y66709D01*
X112679Y66735D01*
X110735Y68679D01*
X110709Y68709D01*
X110590Y68811D01*
X110590Y68812D01*
X110455Y68894D01*
X110310Y68954D01*
X110157Y68991D01*
X110000Y69003D01*
X109961Y69000D01*
X102441D01*
Y90609D01*
X103984Y90611D01*
X104049Y90627D01*
X104111Y90652D01*
X104168Y90687D01*
X104218Y90731D01*
X104262Y90781D01*
X104297Y90838D01*
X104322Y90900D01*
X104338Y90965D01*
X104342Y91032D01*
X104338Y95035D01*
X104322Y95100D01*
X104297Y95162D01*
X104262Y95219D01*
X104218Y95269D01*
X104168Y95313D01*
X104111Y95348D01*
X104049Y95373D01*
X103984Y95389D01*
X103917Y95393D01*
X102441Y95391D01*
Y99609D01*
X103984Y99611D01*
X104049Y99627D01*
X104111Y99652D01*
X104168Y99687D01*
X104218Y99731D01*
X104262Y99781D01*
X104297Y99838D01*
X104322Y99900D01*
X104338Y99965D01*
X104342Y100032D01*
X104338Y104035D01*
X104322Y104100D01*
X104297Y104162D01*
X104262Y104219D01*
X104218Y104269D01*
X104168Y104313D01*
X104111Y104348D01*
X104049Y104373D01*
X103984Y104389D01*
X103917Y104393D01*
X102441Y104391D01*
Y106000D01*
X109586D01*
X111000Y104586D01*
Y103100D01*
X109457D01*
X109456Y104035D01*
X109440Y104100D01*
X109415Y104162D01*
X109380Y104219D01*
X109336Y104269D01*
X109286Y104313D01*
X109229Y104348D01*
X109167Y104373D01*
X109102Y104389D01*
X109035Y104393D01*
X106016Y104389D01*
X105951Y104373D01*
X105889Y104348D01*
X105832Y104313D01*
X105782Y104269D01*
X105738Y104219D01*
X105703Y104162D01*
X105678Y104100D01*
X105662Y104035D01*
X105658Y103968D01*
X105662Y99965D01*
X105678Y99900D01*
X105703Y99838D01*
X105738Y99781D01*
X105782Y99731D01*
X105832Y99687D01*
X105889Y99652D01*
X105951Y99627D01*
X106016Y99611D01*
X106083Y99607D01*
X109102Y99611D01*
X109167Y99627D01*
X109229Y99652D01*
X109286Y99687D01*
X109336Y99731D01*
X109380Y99781D01*
X109415Y99838D01*
X109440Y99900D01*
X109456Y99965D01*
X109460Y100032D01*
X109459Y101100D01*
X111961D01*
X112000Y101097D01*
X112039Y101100D01*
X117078D01*
X117079Y99233D01*
X117095Y99168D01*
X117120Y99106D01*
X117155Y99049D01*
X117199Y98999D01*
X117249Y98955D01*
X117306Y98920D01*
X117368Y98895D01*
X117433Y98879D01*
X117500Y98875D01*
X125993Y98878D01*
Y96224D01*
G37*
G36*
X102441Y69000D02*X94000D01*
Y78961D01*
X94003Y79000D01*
X94000Y79039D01*
Y106000D01*
X102441D01*
Y104391D01*
X100898Y104389D01*
X100833Y104373D01*
X100771Y104348D01*
X100714Y104313D01*
X100664Y104269D01*
X100620Y104219D01*
X100585Y104162D01*
X100560Y104100D01*
X100544Y104035D01*
X100540Y103968D01*
X100544Y99965D01*
X100560Y99900D01*
X100585Y99838D01*
X100620Y99781D01*
X100664Y99731D01*
X100714Y99687D01*
X100771Y99652D01*
X100833Y99627D01*
X100898Y99611D01*
X100965Y99607D01*
X102441Y99609D01*
Y95391D01*
X100898Y95389D01*
X100833Y95373D01*
X100771Y95348D01*
X100714Y95313D01*
X100664Y95269D01*
X100620Y95219D01*
X100585Y95162D01*
X100560Y95100D01*
X100544Y95035D01*
X100540Y94968D01*
X100544Y90965D01*
X100560Y90900D01*
X100585Y90838D01*
X100620Y90781D01*
X100664Y90731D01*
X100714Y90687D01*
X100771Y90652D01*
X100833Y90627D01*
X100898Y90611D01*
X100965Y90607D01*
X102441Y90609D01*
Y69000D01*
G37*
G36*
X125993Y185224D02*X117433Y185221D01*
X117368Y185205D01*
X117306Y185180D01*
X117249Y185145D01*
X117199Y185101D01*
X117155Y185051D01*
X117120Y184994D01*
X117095Y184932D01*
X117079Y184867D01*
X117075Y184800D01*
X117076Y183000D01*
X114498D01*
X114461Y183061D01*
X114277Y183277D01*
X114061Y183461D01*
X113820Y183609D01*
X113558Y183717D01*
X113282Y183783D01*
X113000Y183806D01*
X112718Y183783D01*
X112442Y183717D01*
X112180Y183609D01*
X111939Y183461D01*
X111723Y183277D01*
X111539Y183061D01*
X111502Y183000D01*
X109457D01*
X109456Y184035D01*
X109440Y184100D01*
X109415Y184162D01*
X109380Y184219D01*
X109336Y184269D01*
X109286Y184313D01*
X109229Y184348D01*
X109167Y184373D01*
X109102Y184389D01*
X109035Y184393D01*
X106016Y184389D01*
X105951Y184373D01*
X105889Y184348D01*
X105832Y184313D01*
X105782Y184269D01*
X105738Y184219D01*
X105703Y184162D01*
X105678Y184100D01*
X105662Y184035D01*
X105658Y183968D01*
X105662Y179965D01*
X105678Y179900D01*
X105703Y179838D01*
X105738Y179781D01*
X105782Y179731D01*
X105832Y179687D01*
X105889Y179652D01*
X105951Y179627D01*
X106016Y179611D01*
X106083Y179607D01*
X109102Y179611D01*
X109167Y179627D01*
X109229Y179652D01*
X109286Y179687D01*
X109336Y179731D01*
X109380Y179781D01*
X109415Y179838D01*
X109440Y179900D01*
X109456Y179965D01*
X109460Y180032D01*
X109459Y181000D01*
X111502D01*
X111539Y180939D01*
X111723Y180723D01*
X111939Y180539D01*
X112180Y180391D01*
X112442Y180283D01*
X112718Y180217D01*
X113000Y180194D01*
X113282Y180217D01*
X113558Y180283D01*
X113820Y180391D01*
X114061Y180539D01*
X114277Y180723D01*
X114461Y180939D01*
X114498Y181000D01*
X117078D01*
X117079Y179133D01*
X117095Y179068D01*
X117120Y179006D01*
X117155Y178949D01*
X117199Y178899D01*
X117249Y178855D01*
X117306Y178820D01*
X117368Y178795D01*
X117433Y178779D01*
X117500Y178775D01*
X125993Y178778D01*
Y117000D01*
X114498D01*
X114461Y117061D01*
X114277Y117277D01*
X114061Y117461D01*
X113820Y117609D01*
X113558Y117717D01*
X113282Y117783D01*
X113000Y117806D01*
X112718Y117783D01*
X112442Y117717D01*
X112180Y117609D01*
X111939Y117461D01*
X111723Y117277D01*
X111539Y117061D01*
X111391Y116820D01*
X111283Y116558D01*
X111217Y116282D01*
X111194Y116000D01*
X111217Y115718D01*
X111283Y115442D01*
X111391Y115180D01*
X111539Y114939D01*
X111723Y114723D01*
X111939Y114539D01*
X112180Y114391D01*
X112442Y114283D01*
X112718Y114217D01*
X113000Y114194D01*
X113282Y114217D01*
X113558Y114283D01*
X113820Y114391D01*
X114061Y114539D01*
X114277Y114723D01*
X114461Y114939D01*
X114498Y115000D01*
X125993D01*
Y105324D01*
X117433Y105321D01*
X117368Y105305D01*
X117306Y105280D01*
X117249Y105245D01*
X117199Y105201D01*
X117155Y105151D01*
X117120Y105094D01*
X117095Y105032D01*
X117079Y104967D01*
X117075Y104900D01*
X117076Y103100D01*
X113000D01*
Y104961D01*
X113003Y105000D01*
X112991Y105157D01*
X112991Y105157D01*
X112954Y105310D01*
X112894Y105455D01*
X112812Y105590D01*
X112709Y105709D01*
X112679Y105735D01*
X110735Y107679D01*
X110709Y107709D01*
X110590Y107811D01*
X110590Y107812D01*
X110455Y107894D01*
X110310Y107954D01*
X110157Y107991D01*
X110000Y108003D01*
X109961Y108000D01*
X102441D01*
Y115159D01*
X102454Y115190D01*
X102491Y115343D01*
X102503Y115500D01*
X102500Y115539D01*
Y147461D01*
X102503Y147500D01*
X102491Y147657D01*
X102454Y147810D01*
X102441Y147841D01*
Y179609D01*
X103984Y179611D01*
X104049Y179627D01*
X104111Y179652D01*
X104168Y179687D01*
X104218Y179731D01*
X104262Y179781D01*
X104297Y179838D01*
X104322Y179900D01*
X104338Y179965D01*
X104342Y180032D01*
X104338Y184035D01*
X104322Y184100D01*
X104297Y184162D01*
X104262Y184219D01*
X104218Y184269D01*
X104168Y184313D01*
X104111Y184348D01*
X104049Y184373D01*
X103984Y184389D01*
X103917Y184393D01*
X102441Y184391D01*
Y186000D01*
X109961D01*
X110000Y185997D01*
X110157Y186009D01*
X110157Y186009D01*
X110310Y186046D01*
X110455Y186106D01*
X110590Y186188D01*
X110709Y186291D01*
X110735Y186321D01*
X112679Y188265D01*
X112709Y188291D01*
X112811Y188410D01*
X112812Y188410D01*
X112894Y188545D01*
X112954Y188690D01*
X112991Y188843D01*
X113003Y189000D01*
X113000Y189039D01*
Y190100D01*
X117078D01*
X117079Y188233D01*
X117095Y188168D01*
X117120Y188106D01*
X117155Y188049D01*
X117199Y187999D01*
X117249Y187955D01*
X117306Y187920D01*
X117368Y187895D01*
X117433Y187879D01*
X117500Y187875D01*
X125993Y187878D01*
Y185224D01*
G37*
G36*
X102441Y147841D02*X102394Y147955D01*
X102312Y148090D01*
X102311Y148090D01*
X102209Y148209D01*
X102179Y148235D01*
X94000Y156414D01*
Y183586D01*
X96414Y186000D01*
X102441D01*
Y184391D01*
X100898Y184389D01*
X100833Y184373D01*
X100771Y184348D01*
X100714Y184313D01*
X100664Y184269D01*
X100620Y184219D01*
X100585Y184162D01*
X100560Y184100D01*
X100544Y184035D01*
X100540Y183968D01*
X100544Y179965D01*
X100560Y179900D01*
X100585Y179838D01*
X100620Y179781D01*
X100664Y179731D01*
X100714Y179687D01*
X100771Y179652D01*
X100833Y179627D01*
X100898Y179611D01*
X100965Y179607D01*
X102441Y179609D01*
Y147841D01*
G37*
G36*
Y108000D02*X95414D01*
X102179Y114765D01*
X102209Y114791D01*
X102311Y114910D01*
X102312Y114910D01*
X102394Y115045D01*
X102441Y115159D01*
Y108000D01*
G37*
G36*
X115993Y225000D02*X125993D01*
Y216714D01*
X125262Y216656D01*
X124543Y216484D01*
X123860Y216201D01*
X123229Y215814D01*
X122666Y215334D01*
X122186Y214771D01*
X121799Y214140D01*
X121516Y213457D01*
X121344Y212738D01*
X121286Y212000D01*
X121344Y211262D01*
X121516Y210543D01*
X121799Y209860D01*
X122186Y209229D01*
X122666Y208666D01*
X123229Y208186D01*
X123860Y207799D01*
X124543Y207516D01*
X125262Y207344D01*
X125993Y207286D01*
Y194324D01*
X117433Y194321D01*
X117368Y194305D01*
X117306Y194280D01*
X117249Y194245D01*
X117199Y194201D01*
X117155Y194151D01*
X117120Y194094D01*
X117095Y194032D01*
X117079Y193967D01*
X117075Y193900D01*
X117076Y192100D01*
X115993D01*
Y207286D01*
X116000Y207286D01*
X116738Y207344D01*
X117457Y207516D01*
X118140Y207799D01*
X118771Y208186D01*
X119334Y208666D01*
X119814Y209229D01*
X120201Y209860D01*
X120484Y210543D01*
X120656Y211262D01*
X120700Y212000D01*
X120656Y212738D01*
X120484Y213457D01*
X120201Y214140D01*
X119814Y214771D01*
X119334Y215334D01*
X118771Y215814D01*
X118140Y216201D01*
X117457Y216484D01*
X116738Y216656D01*
X116000Y216714D01*
X115993Y216714D01*
Y225000D01*
G37*
G36*
X105993Y189617D02*X106016Y189611D01*
X106083Y189607D01*
X109102Y189611D01*
X109167Y189627D01*
X109229Y189652D01*
X109286Y189687D01*
X109336Y189731D01*
X109380Y189781D01*
X109415Y189838D01*
X109440Y189900D01*
X109456Y189965D01*
X109460Y190032D01*
X109459Y191000D01*
X110586D01*
X111000Y190586D01*
Y189414D01*
X109586Y188000D01*
X105993D01*
Y189617D01*
G37*
G36*
Y225000D02*X115993D01*
Y216714D01*
X115262Y216656D01*
X114543Y216484D01*
X113860Y216201D01*
X113229Y215814D01*
X112666Y215334D01*
X112186Y214771D01*
X111799Y214140D01*
X111516Y213457D01*
X111344Y212738D01*
X111286Y212000D01*
X111344Y211262D01*
X111516Y210543D01*
X111799Y209860D01*
X112186Y209229D01*
X112666Y208666D01*
X113229Y208186D01*
X113860Y207799D01*
X114543Y207516D01*
X115262Y207344D01*
X115993Y207286D01*
Y192100D01*
X112314D01*
X111735Y192679D01*
X111709Y192709D01*
X111590Y192811D01*
X111590Y192812D01*
X111455Y192894D01*
X111310Y192954D01*
X111157Y192991D01*
X111000Y193003D01*
X110961Y193000D01*
X109457D01*
X109456Y194035D01*
X109440Y194100D01*
X109415Y194162D01*
X109380Y194219D01*
X109336Y194269D01*
X109286Y194313D01*
X109229Y194348D01*
X109167Y194373D01*
X109102Y194389D01*
X109035Y194393D01*
X106016Y194389D01*
X105993Y194383D01*
Y207286D01*
X106000Y207286D01*
X106738Y207344D01*
X107457Y207516D01*
X108140Y207799D01*
X108771Y208186D01*
X109334Y208666D01*
X109814Y209229D01*
X110201Y209860D01*
X110484Y210543D01*
X110656Y211262D01*
X110700Y212000D01*
X110656Y212738D01*
X110484Y213457D01*
X110201Y214140D01*
X109814Y214771D01*
X109334Y215334D01*
X108771Y215814D01*
X108140Y216201D01*
X107457Y216484D01*
X106738Y216656D01*
X106000Y216714D01*
X105993Y216714D01*
Y225000D01*
G37*
G36*
X102441Y208930D02*X102666Y208666D01*
X103229Y208186D01*
X103860Y207799D01*
X104543Y207516D01*
X105262Y207344D01*
X105993Y207286D01*
Y194383D01*
X105951Y194373D01*
X105889Y194348D01*
X105832Y194313D01*
X105782Y194269D01*
X105738Y194219D01*
X105703Y194162D01*
X105678Y194100D01*
X105662Y194035D01*
X105658Y193968D01*
X105662Y189965D01*
X105678Y189900D01*
X105703Y189838D01*
X105738Y189781D01*
X105782Y189731D01*
X105832Y189687D01*
X105889Y189652D01*
X105951Y189627D01*
X105993Y189617D01*
Y188000D01*
X102441D01*
Y189609D01*
X103984Y189611D01*
X104049Y189627D01*
X104111Y189652D01*
X104168Y189687D01*
X104218Y189731D01*
X104262Y189781D01*
X104297Y189838D01*
X104322Y189900D01*
X104338Y189965D01*
X104342Y190032D01*
X104338Y194035D01*
X104322Y194100D01*
X104297Y194162D01*
X104262Y194219D01*
X104218Y194269D01*
X104168Y194313D01*
X104111Y194348D01*
X104049Y194373D01*
X103984Y194389D01*
X103917Y194393D01*
X102441Y194391D01*
Y208930D01*
G37*
G36*
Y225000D02*X105993D01*
Y216714D01*
X105262Y216656D01*
X104543Y216484D01*
X103860Y216201D01*
X103229Y215814D01*
X102666Y215334D01*
X102441Y215070D01*
Y225000D01*
G37*
G36*
X95993D02*X102441D01*
Y215070D01*
X102186Y214771D01*
X101799Y214140D01*
X101516Y213457D01*
X101344Y212738D01*
X101286Y212000D01*
X101344Y211262D01*
X101516Y210543D01*
X101799Y209860D01*
X102186Y209229D01*
X102441Y208930D01*
Y194391D01*
X100898Y194389D01*
X100833Y194373D01*
X100771Y194348D01*
X100714Y194313D01*
X100664Y194269D01*
X100620Y194219D01*
X100585Y194162D01*
X100560Y194100D01*
X100544Y194035D01*
X100540Y193968D01*
X100544Y189965D01*
X100560Y189900D01*
X100585Y189838D01*
X100620Y189781D01*
X100664Y189731D01*
X100714Y189687D01*
X100771Y189652D01*
X100833Y189627D01*
X100898Y189611D01*
X100965Y189607D01*
X102441Y189609D01*
Y188000D01*
X96039D01*
X96000Y188003D01*
X95993Y188003D01*
Y207286D01*
X96000Y207286D01*
X96738Y207344D01*
X97457Y207516D01*
X98140Y207799D01*
X98771Y208186D01*
X99334Y208666D01*
X99814Y209229D01*
X100201Y209860D01*
X100484Y210543D01*
X100656Y211262D01*
X100700Y212000D01*
X100656Y212738D01*
X100484Y213457D01*
X100201Y214140D01*
X99814Y214771D01*
X99334Y215334D01*
X98771Y215814D01*
X98140Y216201D01*
X97457Y216484D01*
X96738Y216656D01*
X96000Y216714D01*
X95993Y216714D01*
Y225000D01*
G37*
G36*
X85993D02*X95993D01*
Y216714D01*
X95262Y216656D01*
X94543Y216484D01*
X93860Y216201D01*
X93229Y215814D01*
X92666Y215334D01*
X92186Y214771D01*
X91799Y214140D01*
X91516Y213457D01*
X91344Y212738D01*
X91286Y212000D01*
X91344Y211262D01*
X91516Y210543D01*
X91799Y209860D01*
X92186Y209229D01*
X92666Y208666D01*
X93229Y208186D01*
X93860Y207799D01*
X94543Y207516D01*
X95262Y207344D01*
X95993Y207286D01*
Y188003D01*
X95843Y187991D01*
X95690Y187954D01*
X95545Y187894D01*
X95410Y187812D01*
X95410Y187811D01*
X95291Y187709D01*
X95265Y187679D01*
X92321Y184735D01*
X92291Y184709D01*
X92188Y184590D01*
X92106Y184455D01*
X92046Y184310D01*
X92009Y184157D01*
X92009Y184157D01*
X91997Y184000D01*
X92000Y183961D01*
Y157000D01*
X86944D01*
X86941Y160207D01*
X86904Y160360D01*
X86844Y160505D01*
X86762Y160640D01*
X86659Y160759D01*
X86540Y160862D01*
X86405Y160944D01*
X86260Y161004D01*
X86107Y161041D01*
X85993Y161047D01*
Y207286D01*
X86000Y207286D01*
X86738Y207344D01*
X87457Y207516D01*
X88140Y207799D01*
X88771Y208186D01*
X89334Y208666D01*
X89814Y209229D01*
X90201Y209860D01*
X90484Y210543D01*
X90656Y211262D01*
X90700Y212000D01*
X90656Y212738D01*
X90484Y213457D01*
X90201Y214140D01*
X89814Y214771D01*
X89334Y215334D01*
X88771Y215814D01*
X88140Y216201D01*
X87457Y216484D01*
X86738Y216656D01*
X86000Y216714D01*
X85993Y216714D01*
Y225000D01*
G37*
G36*
X80833D02*X85993D01*
Y216714D01*
X85262Y216656D01*
X84543Y216484D01*
X83860Y216201D01*
X83229Y215814D01*
X82666Y215334D01*
X82186Y214771D01*
X81799Y214140D01*
X81516Y213457D01*
X81344Y212738D01*
X81286Y212000D01*
X81344Y211262D01*
X81516Y210543D01*
X81799Y209860D01*
X82186Y209229D01*
X82666Y208666D01*
X83229Y208186D01*
X83860Y207799D01*
X84543Y207516D01*
X85262Y207344D01*
X85993Y207286D01*
Y161047D01*
X85950Y161050D01*
X80833Y161043D01*
Y225000D01*
G37*
G36*
X79939Y22689D02*X79984Y22356D01*
X80000Y22000D01*
X79984Y21644D01*
X79939Y21311D01*
Y22689D01*
G37*
G36*
Y29000D02*X80833D01*
Y9000D01*
X79939D01*
Y19440D01*
X80047Y19600D01*
X80244Y19970D01*
X80408Y20357D01*
X80537Y20756D01*
X80630Y21165D01*
X80686Y21581D01*
X80705Y22000D01*
X80686Y22419D01*
X80630Y22835D01*
X80537Y23244D01*
X80408Y23643D01*
X80244Y24030D01*
X80047Y24400D01*
X79939Y24564D01*
Y29000D01*
G37*
G36*
X76002D02*X79939D01*
Y24564D01*
X79817Y24751D01*
X79781Y24793D01*
X79739Y24830D01*
X79691Y24859D01*
X79640Y24881D01*
X79586Y24894D01*
X79530Y24898D01*
X79475Y24894D01*
X79421Y24881D01*
X79369Y24860D01*
X79321Y24831D01*
X79279Y24795D01*
X79243Y24753D01*
X79213Y24706D01*
X79192Y24654D01*
X79179Y24600D01*
X79174Y24545D01*
X79178Y24489D01*
X79191Y24435D01*
X79212Y24383D01*
X79242Y24336D01*
X79441Y24040D01*
X79609Y23726D01*
X79748Y23397D01*
X79858Y23058D01*
X79936Y22710D01*
X79939Y22689D01*
Y21311D01*
X79936Y21290D01*
X79858Y20942D01*
X79748Y20603D01*
X79609Y20274D01*
X79441Y19960D01*
X79245Y19661D01*
X79216Y19615D01*
X79195Y19564D01*
X79182Y19510D01*
X79178Y19455D01*
X79182Y19400D01*
X79196Y19347D01*
X79217Y19296D01*
X79246Y19249D01*
X79282Y19207D01*
X79324Y19172D01*
X79371Y19143D01*
X79422Y19122D01*
X79475Y19110D01*
X79530Y19106D01*
X79585Y19110D01*
X79639Y19123D01*
X79690Y19144D01*
X79736Y19173D01*
X79778Y19209D01*
X79813Y19252D01*
X79939Y19440D01*
Y9000D01*
X76002D01*
Y17295D01*
X76419Y17314D01*
X76835Y17370D01*
X77244Y17463D01*
X77643Y17592D01*
X78030Y17756D01*
X78400Y17953D01*
X78751Y18183D01*
X78793Y18219D01*
X78830Y18261D01*
X78859Y18309D01*
X78881Y18360D01*
X78894Y18414D01*
X78898Y18470D01*
X78894Y18525D01*
X78881Y18579D01*
X78860Y18631D01*
X78831Y18679D01*
X78795Y18721D01*
X78753Y18757D01*
X78706Y18787D01*
X78654Y18808D01*
X78600Y18821D01*
X78545Y18826D01*
X78489Y18822D01*
X78435Y18809D01*
X78383Y18788D01*
X78336Y18758D01*
X78040Y18559D01*
X77726Y18391D01*
X77397Y18252D01*
X77058Y18142D01*
X76710Y18064D01*
X76356Y18016D01*
X76002Y18000D01*
Y26000D01*
X76356Y25984D01*
X76710Y25936D01*
X77058Y25858D01*
X77397Y25748D01*
X77726Y25609D01*
X78040Y25441D01*
X78339Y25245D01*
X78385Y25216D01*
X78436Y25195D01*
X78490Y25182D01*
X78545Y25178D01*
X78600Y25182D01*
X78653Y25196D01*
X78704Y25217D01*
X78751Y25246D01*
X78793Y25282D01*
X78828Y25324D01*
X78857Y25371D01*
X78878Y25422D01*
X78890Y25475D01*
X78894Y25530D01*
X78890Y25585D01*
X78877Y25639D01*
X78856Y25690D01*
X78827Y25736D01*
X78791Y25778D01*
X78748Y25813D01*
X78400Y26047D01*
X78030Y26244D01*
X77643Y26408D01*
X77244Y26537D01*
X76835Y26630D01*
X76419Y26686D01*
X76002Y26705D01*
Y29000D01*
G37*
G36*
X72061D02*X76002D01*
Y26705D01*
X76000Y26705D01*
X75581Y26686D01*
X75165Y26630D01*
X74756Y26537D01*
X74357Y26408D01*
X73970Y26244D01*
X73600Y26047D01*
X73249Y25817D01*
X73207Y25781D01*
X73170Y25739D01*
X73141Y25691D01*
X73119Y25640D01*
X73106Y25586D01*
X73102Y25530D01*
X73106Y25475D01*
X73119Y25421D01*
X73140Y25369D01*
X73169Y25321D01*
X73205Y25279D01*
X73247Y25243D01*
X73294Y25213D01*
X73346Y25192D01*
X73400Y25179D01*
X73455Y25174D01*
X73511Y25178D01*
X73565Y25191D01*
X73617Y25212D01*
X73664Y25242D01*
X73960Y25441D01*
X74274Y25609D01*
X74603Y25748D01*
X74942Y25858D01*
X75290Y25936D01*
X75644Y25984D01*
X76000Y26000D01*
X76002Y26000D01*
Y18000D01*
X76000Y18000D01*
X75644Y18016D01*
X75290Y18064D01*
X74942Y18142D01*
X74603Y18252D01*
X74274Y18391D01*
X73960Y18559D01*
X73661Y18755D01*
X73615Y18784D01*
X73564Y18805D01*
X73510Y18818D01*
X73455Y18822D01*
X73400Y18818D01*
X73347Y18804D01*
X73296Y18783D01*
X73249Y18754D01*
X73207Y18718D01*
X73172Y18676D01*
X73143Y18629D01*
X73122Y18578D01*
X73110Y18525D01*
X73106Y18470D01*
X73110Y18415D01*
X73123Y18361D01*
X73144Y18310D01*
X73173Y18264D01*
X73209Y18222D01*
X73252Y18187D01*
X73600Y17953D01*
X73970Y17756D01*
X74357Y17592D01*
X74756Y17463D01*
X75165Y17370D01*
X75581Y17314D01*
X76000Y17295D01*
X76002Y17295D01*
Y9000D01*
X72061D01*
Y19436D01*
X72183Y19249D01*
X72219Y19207D01*
X72261Y19170D01*
X72309Y19141D01*
X72360Y19119D01*
X72414Y19106D01*
X72470Y19102D01*
X72525Y19106D01*
X72579Y19119D01*
X72631Y19140D01*
X72679Y19169D01*
X72721Y19205D01*
X72757Y19247D01*
X72787Y19294D01*
X72808Y19346D01*
X72821Y19400D01*
X72826Y19455D01*
X72822Y19511D01*
X72809Y19565D01*
X72788Y19617D01*
X72758Y19664D01*
X72559Y19960D01*
X72391Y20274D01*
X72252Y20603D01*
X72142Y20942D01*
X72064Y21290D01*
X72061Y21311D01*
Y22689D01*
X72064Y22710D01*
X72142Y23058D01*
X72252Y23397D01*
X72391Y23726D01*
X72559Y24040D01*
X72755Y24339D01*
X72784Y24385D01*
X72805Y24436D01*
X72818Y24490D01*
X72822Y24545D01*
X72818Y24600D01*
X72804Y24653D01*
X72783Y24704D01*
X72754Y24751D01*
X72718Y24793D01*
X72676Y24828D01*
X72629Y24857D01*
X72578Y24878D01*
X72525Y24890D01*
X72470Y24894D01*
X72415Y24890D01*
X72361Y24877D01*
X72310Y24856D01*
X72264Y24827D01*
X72222Y24791D01*
X72187Y24748D01*
X72061Y24560D01*
Y29000D01*
G37*
G36*
Y21311D02*X72016Y21644D01*
X72000Y22000D01*
X72016Y22356D01*
X72061Y22689D01*
Y21311D01*
G37*
G36*
X69939Y22689D02*X69984Y22356D01*
X70000Y22000D01*
X69984Y21644D01*
X69939Y21311D01*
Y22689D01*
G37*
G36*
Y29000D02*X72061D01*
Y24560D01*
X71953Y24400D01*
X71756Y24030D01*
X71592Y23643D01*
X71463Y23244D01*
X71370Y22835D01*
X71314Y22419D01*
X71295Y22000D01*
X71314Y21581D01*
X71370Y21165D01*
X71463Y20756D01*
X71592Y20357D01*
X71756Y19970D01*
X71953Y19600D01*
X72061Y19436D01*
Y9000D01*
X69939D01*
Y19440D01*
X70047Y19600D01*
X70244Y19970D01*
X70408Y20357D01*
X70537Y20756D01*
X70630Y21165D01*
X70686Y21581D01*
X70705Y22000D01*
X70686Y22419D01*
X70630Y22835D01*
X70537Y23244D01*
X70408Y23643D01*
X70244Y24030D01*
X70047Y24400D01*
X69939Y24564D01*
Y29000D01*
G37*
G36*
X63572Y30014D02*X64265Y29321D01*
X64291Y29291D01*
X64410Y29189D01*
X64410Y29188D01*
X64545Y29106D01*
X64690Y29046D01*
X64813Y29016D01*
X64843Y29009D01*
X64843D01*
X65000Y28997D01*
X65039Y29000D01*
X69939D01*
Y24564D01*
X69817Y24751D01*
X69781Y24793D01*
X69739Y24830D01*
X69691Y24859D01*
X69640Y24881D01*
X69586Y24894D01*
X69530Y24898D01*
X69475Y24894D01*
X69421Y24881D01*
X69369Y24860D01*
X69321Y24831D01*
X69279Y24795D01*
X69243Y24753D01*
X69213Y24706D01*
X69192Y24654D01*
X69179Y24600D01*
X69174Y24545D01*
X69178Y24489D01*
X69191Y24435D01*
X69212Y24383D01*
X69242Y24336D01*
X69441Y24040D01*
X69609Y23726D01*
X69748Y23397D01*
X69858Y23058D01*
X69936Y22710D01*
X69939Y22689D01*
Y21311D01*
X69936Y21290D01*
X69858Y20942D01*
X69748Y20603D01*
X69609Y20274D01*
X69441Y19960D01*
X69245Y19661D01*
X69216Y19615D01*
X69195Y19564D01*
X69182Y19510D01*
X69178Y19455D01*
X69182Y19400D01*
X69196Y19347D01*
X69217Y19296D01*
X69246Y19249D01*
X69282Y19207D01*
X69324Y19172D01*
X69371Y19143D01*
X69422Y19122D01*
X69475Y19110D01*
X69530Y19106D01*
X69585Y19110D01*
X69639Y19123D01*
X69690Y19144D01*
X69736Y19173D01*
X69778Y19209D01*
X69813Y19252D01*
X69939Y19440D01*
Y9000D01*
X63572D01*
Y17972D01*
X63600Y17953D01*
X63970Y17756D01*
X64357Y17592D01*
X64756Y17463D01*
X65165Y17370D01*
X65581Y17314D01*
X66000Y17295D01*
X66419Y17314D01*
X66835Y17370D01*
X67244Y17463D01*
X67643Y17592D01*
X68030Y17756D01*
X68400Y17953D01*
X68751Y18183D01*
X68793Y18219D01*
X68830Y18261D01*
X68859Y18309D01*
X68881Y18360D01*
X68894Y18414D01*
X68898Y18470D01*
X68894Y18525D01*
X68881Y18579D01*
X68860Y18631D01*
X68831Y18679D01*
X68795Y18721D01*
X68753Y18757D01*
X68706Y18787D01*
X68654Y18808D01*
X68600Y18821D01*
X68545Y18826D01*
X68489Y18822D01*
X68435Y18809D01*
X68383Y18788D01*
X68336Y18758D01*
X68040Y18559D01*
X67726Y18391D01*
X67397Y18252D01*
X67058Y18142D01*
X66710Y18064D01*
X66356Y18016D01*
X66000Y18000D01*
X65644Y18016D01*
X65290Y18064D01*
X64942Y18142D01*
X64603Y18252D01*
X64274Y18391D01*
X63960Y18559D01*
X63661Y18755D01*
X63615Y18784D01*
X63572Y18802D01*
Y25194D01*
X63617Y25212D01*
X63664Y25242D01*
X63960Y25441D01*
X64274Y25609D01*
X64603Y25748D01*
X64942Y25858D01*
X65290Y25936D01*
X65644Y25984D01*
X66000Y26000D01*
X66356Y25984D01*
X66710Y25936D01*
X67058Y25858D01*
X67397Y25748D01*
X67726Y25609D01*
X68040Y25441D01*
X68339Y25245D01*
X68385Y25216D01*
X68436Y25195D01*
X68490Y25182D01*
X68545Y25178D01*
X68600Y25182D01*
X68653Y25196D01*
X68704Y25217D01*
X68751Y25246D01*
X68793Y25282D01*
X68828Y25324D01*
X68857Y25371D01*
X68878Y25422D01*
X68890Y25475D01*
X68894Y25530D01*
X68890Y25585D01*
X68877Y25639D01*
X68856Y25690D01*
X68827Y25736D01*
X68791Y25778D01*
X68748Y25813D01*
X68400Y26047D01*
X68030Y26244D01*
X67643Y26408D01*
X67244Y26537D01*
X66835Y26630D01*
X66419Y26686D01*
X66000Y26705D01*
X65581Y26686D01*
X65165Y26630D01*
X64756Y26537D01*
X64357Y26408D01*
X63970Y26244D01*
X63600Y26047D01*
X63572Y26028D01*
Y30014D01*
G37*
G36*
X74112Y130025D02*X74213Y129758D01*
X74428Y128987D01*
X74572Y128198D01*
X74644Y127401D01*
Y126599D01*
X74572Y125802D01*
X74428Y125013D01*
X74213Y124242D01*
X74112Y123975D01*
Y130025D01*
G37*
G36*
Y99042D02*X74944Y98698D01*
X76453Y98335D01*
X78000Y98214D01*
X79547Y98335D01*
X80833Y98644D01*
Y84043D01*
X78893Y84041D01*
X78740Y84004D01*
X78595Y83944D01*
X78460Y83862D01*
X78341Y83759D01*
X78238Y83640D01*
X78156Y83505D01*
X78096Y83360D01*
X78059Y83207D01*
X78050Y83050D01*
X78059Y74793D01*
X78096Y74640D01*
X78156Y74495D01*
X78238Y74360D01*
X78341Y74241D01*
X78460Y74138D01*
X78595Y74056D01*
X78740Y73996D01*
X78893Y73959D01*
X79050Y73950D01*
X80833Y73952D01*
Y45043D01*
X78893Y45041D01*
X78740Y45004D01*
X78595Y44944D01*
X78460Y44862D01*
X78341Y44759D01*
X78238Y44640D01*
X78156Y44505D01*
X78096Y44360D01*
X78059Y44207D01*
X78050Y44050D01*
X78059Y35793D01*
X78096Y35640D01*
X78156Y35495D01*
X78238Y35360D01*
X78341Y35241D01*
X78460Y35138D01*
X78595Y35056D01*
X78740Y34996D01*
X78893Y34959D01*
X79050Y34950D01*
X80833Y34952D01*
Y31000D01*
X74112D01*
Y34958D01*
X75107Y34959D01*
X75260Y34996D01*
X75405Y35056D01*
X75540Y35138D01*
X75659Y35241D01*
X75762Y35360D01*
X75844Y35495D01*
X75904Y35640D01*
X75941Y35793D01*
X75950Y35950D01*
X75941Y44207D01*
X75904Y44360D01*
X75844Y44505D01*
X75762Y44640D01*
X75659Y44759D01*
X75540Y44862D01*
X75405Y44944D01*
X75260Y45004D01*
X75107Y45041D01*
X74950Y45050D01*
X74112Y45049D01*
Y73958D01*
X75107Y73959D01*
X75260Y73996D01*
X75405Y74056D01*
X75540Y74138D01*
X75659Y74241D01*
X75762Y74360D01*
X75844Y74495D01*
X75904Y74640D01*
X75941Y74793D01*
X75950Y74950D01*
X75941Y83207D01*
X75904Y83360D01*
X75844Y83505D01*
X75762Y83640D01*
X75659Y83759D01*
X75540Y83862D01*
X75405Y83944D01*
X75260Y84004D01*
X75107Y84041D01*
X74950Y84050D01*
X74112Y84049D01*
Y99042D01*
G37*
G36*
Y143000D02*X80833D01*
Y131086D01*
X80406Y130056D01*
X80044Y128547D01*
X79922Y127000D01*
X80044Y125453D01*
X80406Y123944D01*
X80833Y122914D01*
Y117561D01*
X79547Y117869D01*
X78000Y117991D01*
X76453Y117869D01*
X74944Y117507D01*
X74112Y117162D01*
Y121702D01*
X74467Y122290D01*
X74857Y123092D01*
X75173Y123927D01*
X75412Y124787D01*
X75573Y125665D01*
X75654Y126554D01*
Y127446D01*
X75573Y128335D01*
X75412Y129213D01*
X75173Y130073D01*
X74857Y130908D01*
X74467Y131710D01*
X74112Y132299D01*
Y143000D01*
G37*
G36*
Y45049D02*X67893Y45041D01*
X67740Y45004D01*
X67595Y44944D01*
X67460Y44862D01*
X67341Y44759D01*
X67238Y44640D01*
X67156Y44505D01*
X67096Y44360D01*
X67059Y44207D01*
X67050Y44050D01*
X67053Y41000D01*
X65039D01*
X65000Y41003D01*
X64843Y40991D01*
X64690Y40954D01*
X64545Y40894D01*
X64410Y40812D01*
X64410Y40811D01*
X64291Y40709D01*
X64265Y40679D01*
X63572Y39986D01*
Y78000D01*
X67056D01*
X67059Y74793D01*
X67096Y74640D01*
X67156Y74495D01*
X67238Y74360D01*
X67341Y74241D01*
X67460Y74138D01*
X67595Y74056D01*
X67740Y73996D01*
X67893Y73959D01*
X68050Y73950D01*
X74112Y73958D01*
Y45049D01*
G37*
G36*
Y31000D02*X65414D01*
X64000Y32414D01*
Y37586D01*
X65414Y39000D01*
X67056D01*
X67059Y35793D01*
X67096Y35640D01*
X67156Y35495D01*
X67238Y35360D01*
X67341Y35241D01*
X67460Y35138D01*
X67595Y35056D01*
X67740Y34996D01*
X67893Y34959D01*
X68050Y34950D01*
X74112Y34958D01*
Y31000D01*
G37*
G36*
X63572Y145014D02*X65265Y143321D01*
X65291Y143291D01*
X65410Y143189D01*
X65410Y143188D01*
X65545Y143106D01*
X65690Y143046D01*
X65813Y143016D01*
X65843Y143009D01*
X65843D01*
X66000Y142997D01*
X66039Y143000D01*
X74112D01*
Y132299D01*
X74006Y132475D01*
X73478Y133194D01*
X73423Y133253D01*
X73360Y133301D01*
X73289Y133340D01*
X73214Y133367D01*
X73135Y133382D01*
X73055Y133384D01*
X72975Y133373D01*
X72899Y133351D01*
X72826Y133317D01*
X72760Y133271D01*
X72702Y133216D01*
X72653Y133153D01*
X72615Y133082D01*
X72588Y133007D01*
X72573Y132928D01*
X72571Y132848D01*
X72581Y132769D01*
X72603Y132692D01*
X72638Y132619D01*
X72684Y132554D01*
X73165Y131914D01*
X73579Y131228D01*
X73929Y130508D01*
X74112Y130025D01*
Y123975D01*
X73929Y123492D01*
X73579Y122772D01*
X73165Y122086D01*
X72691Y121440D01*
X72646Y121376D01*
X72612Y121305D01*
X72590Y121229D01*
X72580Y121151D01*
X72582Y121073D01*
X72596Y120995D01*
X72623Y120921D01*
X72661Y120852D01*
X72709Y120790D01*
X72766Y120736D01*
X72831Y120691D01*
X72902Y120658D01*
X72977Y120635D01*
X73055Y120625D01*
X73134Y120628D01*
X73211Y120642D01*
X73286Y120668D01*
X73355Y120706D01*
X73417Y120754D01*
X73470Y120812D01*
X74006Y121525D01*
X74112Y121702D01*
Y117162D01*
X73511Y116913D01*
X72188Y116102D01*
X71008Y115095D01*
X70000Y113915D01*
X69189Y112592D01*
X68595Y111158D01*
X68233Y109649D01*
X68111Y108102D01*
X68233Y106555D01*
X68595Y105047D01*
X69189Y103613D01*
X70000Y102290D01*
X71008Y101110D01*
X72188Y100102D01*
X73511Y99291D01*
X74112Y99042D01*
Y84049D01*
X67893Y84041D01*
X67740Y84004D01*
X67595Y83944D01*
X67460Y83862D01*
X67341Y83759D01*
X67238Y83640D01*
X67156Y83505D01*
X67096Y83360D01*
X67059Y83207D01*
X67050Y83050D01*
X67053Y80000D01*
X63572D01*
Y117386D01*
X63582Y117383D01*
X64460Y117222D01*
X65349Y117142D01*
X66242D01*
X67130Y117222D01*
X68008Y117383D01*
X68868Y117622D01*
X69703Y117938D01*
X70506Y118328D01*
X71270Y118789D01*
X71989Y119318D01*
X72048Y119372D01*
X72097Y119436D01*
X72135Y119506D01*
X72162Y119581D01*
X72177Y119660D01*
X72179Y119740D01*
X72169Y119820D01*
X72146Y119897D01*
X72112Y119969D01*
X72067Y120035D01*
X72012Y120093D01*
X71948Y120142D01*
X71878Y120181D01*
X71802Y120208D01*
X71724Y120222D01*
X71643Y120225D01*
X71564Y120214D01*
X71487Y120192D01*
X71415Y120157D01*
X71350Y120111D01*
X70709Y119630D01*
X70023Y119216D01*
X69303Y118866D01*
X68554Y118582D01*
X67782Y118367D01*
X66994Y118223D01*
X66196Y118151D01*
X65395D01*
X64597Y118223D01*
X63809Y118367D01*
X63572Y118433D01*
Y135567D01*
X63809Y135633D01*
X64597Y135777D01*
X65395Y135849D01*
X66196D01*
X66994Y135777D01*
X67782Y135633D01*
X68554Y135418D01*
X69303Y135134D01*
X70023Y134784D01*
X70709Y134370D01*
X71355Y133896D01*
X71419Y133850D01*
X71490Y133817D01*
X71566Y133795D01*
X71644Y133784D01*
X71723Y133787D01*
X71800Y133801D01*
X71874Y133828D01*
X71943Y133865D01*
X72005Y133913D01*
X72060Y133971D01*
X72104Y134035D01*
X72138Y134107D01*
X72160Y134182D01*
X72170Y134260D01*
X72168Y134339D01*
X72153Y134416D01*
X72127Y134490D01*
X72089Y134559D01*
X72041Y134622D01*
X71983Y134675D01*
X71270Y135211D01*
X70506Y135672D01*
X69703Y136062D01*
X68868Y136378D01*
X68008Y136617D01*
X67130Y136778D01*
X66242Y136858D01*
X65349D01*
X64460Y136778D01*
X63582Y136617D01*
X63572Y136614D01*
Y145014D01*
G37*
G36*
Y225000D02*X80833D01*
Y161043D01*
X78893Y161041D01*
X78740Y161004D01*
X78595Y160944D01*
X78460Y160862D01*
X78341Y160759D01*
X78238Y160640D01*
X78156Y160505D01*
X78096Y160360D01*
X78059Y160207D01*
X78050Y160050D01*
X78059Y151793D01*
X78096Y151640D01*
X78156Y151495D01*
X78238Y151360D01*
X78341Y151241D01*
X78460Y151138D01*
X78595Y151056D01*
X78740Y150996D01*
X78893Y150959D01*
X79050Y150950D01*
X80833Y150952D01*
Y145000D01*
X66414D01*
X64000Y147414D01*
Y153586D01*
X65414Y155000D01*
X67056D01*
X67059Y151793D01*
X67096Y151640D01*
X67156Y151495D01*
X67238Y151360D01*
X67341Y151241D01*
X67460Y151138D01*
X67595Y151056D01*
X67740Y150996D01*
X67893Y150959D01*
X68050Y150950D01*
X75107Y150959D01*
X75260Y150996D01*
X75405Y151056D01*
X75540Y151138D01*
X75659Y151241D01*
X75762Y151360D01*
X75844Y151495D01*
X75904Y151640D01*
X75941Y151793D01*
X75950Y151950D01*
X75941Y160207D01*
X75904Y160360D01*
X75844Y160505D01*
X75762Y160640D01*
X75659Y160759D01*
X75540Y160862D01*
X75405Y160944D01*
X75260Y161004D01*
X75107Y161041D01*
X74950Y161050D01*
X67893Y161041D01*
X67740Y161004D01*
X67595Y160944D01*
X67460Y160862D01*
X67341Y160759D01*
X67238Y160640D01*
X67156Y160505D01*
X67096Y160360D01*
X67059Y160207D01*
X67050Y160050D01*
X67053Y157000D01*
X65039D01*
X65000Y157003D01*
X64843Y156991D01*
X64690Y156954D01*
X64545Y156894D01*
X64410Y156812D01*
X64410Y156811D01*
X64291Y156709D01*
X64265Y156679D01*
X63572Y155986D01*
Y225000D01*
G37*
G36*
X62061Y31655D02*X62106Y31545D01*
X62188Y31410D01*
X62189Y31410D01*
X62291Y31291D01*
X62321Y31265D01*
X63572Y30014D01*
Y26028D01*
X63249Y25817D01*
X63207Y25781D01*
X63170Y25739D01*
X63141Y25691D01*
X63119Y25640D01*
X63106Y25586D01*
X63102Y25530D01*
X63106Y25475D01*
X63119Y25421D01*
X63140Y25369D01*
X63169Y25321D01*
X63205Y25279D01*
X63247Y25243D01*
X63294Y25213D01*
X63346Y25192D01*
X63400Y25179D01*
X63455Y25174D01*
X63511Y25178D01*
X63565Y25191D01*
X63572Y25194D01*
Y18802D01*
X63564Y18805D01*
X63510Y18818D01*
X63455Y18822D01*
X63400Y18818D01*
X63347Y18804D01*
X63296Y18783D01*
X63249Y18754D01*
X63207Y18718D01*
X63172Y18676D01*
X63143Y18629D01*
X63122Y18578D01*
X63110Y18525D01*
X63106Y18470D01*
X63110Y18415D01*
X63123Y18361D01*
X63144Y18310D01*
X63173Y18264D01*
X63209Y18222D01*
X63252Y18187D01*
X63572Y17972D01*
Y9000D01*
X62061D01*
Y19436D01*
X62183Y19249D01*
X62219Y19207D01*
X62261Y19170D01*
X62309Y19141D01*
X62360Y19119D01*
X62414Y19106D01*
X62470Y19102D01*
X62525Y19106D01*
X62579Y19119D01*
X62631Y19140D01*
X62679Y19169D01*
X62721Y19205D01*
X62757Y19247D01*
X62787Y19294D01*
X62808Y19346D01*
X62821Y19400D01*
X62826Y19455D01*
X62822Y19511D01*
X62809Y19565D01*
X62788Y19617D01*
X62758Y19664D01*
X62559Y19960D01*
X62391Y20274D01*
X62252Y20603D01*
X62142Y20942D01*
X62064Y21290D01*
X62061Y21311D01*
Y22689D01*
X62064Y22710D01*
X62142Y23058D01*
X62252Y23397D01*
X62391Y23726D01*
X62559Y24040D01*
X62755Y24339D01*
X62784Y24385D01*
X62805Y24436D01*
X62818Y24490D01*
X62822Y24545D01*
X62818Y24600D01*
X62804Y24653D01*
X62783Y24704D01*
X62754Y24751D01*
X62718Y24793D01*
X62676Y24828D01*
X62629Y24857D01*
X62578Y24878D01*
X62525Y24890D01*
X62470Y24894D01*
X62415Y24890D01*
X62361Y24877D01*
X62310Y24856D01*
X62264Y24827D01*
X62222Y24791D01*
X62187Y24748D01*
X62061Y24560D01*
Y31655D01*
G37*
G36*
Y78000D02*X63572D01*
Y39986D01*
X62321Y38735D01*
X62291Y38709D01*
X62188Y38590D01*
X62106Y38455D01*
X62061Y38345D01*
Y78000D01*
G37*
G36*
Y117873D02*X62722Y117622D01*
X63572Y117386D01*
Y80000D01*
X62061D01*
Y117873D01*
G37*
G36*
Y135024D02*X62288Y135134D01*
X63037Y135418D01*
X63572Y135567D01*
Y118433D01*
X63037Y118582D01*
X62288Y118866D01*
X62061Y118976D01*
Y135024D01*
G37*
G36*
Y146655D02*X62106Y146545D01*
X62188Y146410D01*
X62189Y146410D01*
X62291Y146291D01*
X62321Y146265D01*
X63572Y145014D01*
Y136614D01*
X62722Y136378D01*
X62061Y136127D01*
Y146655D01*
G37*
G36*
Y225000D02*X63572D01*
Y155986D01*
X62321Y154735D01*
X62291Y154709D01*
X62188Y154590D01*
X62106Y154455D01*
X62061Y154345D01*
Y225000D01*
G37*
G36*
Y21311D02*X62016Y21644D01*
X62000Y22000D01*
X62016Y22356D01*
X62061Y22689D01*
Y21311D01*
G37*
G36*
X57478Y17525D02*X58140Y17799D01*
X58771Y18186D01*
X59334Y18666D01*
X59814Y19229D01*
X60201Y19860D01*
X60484Y20543D01*
X60656Y21262D01*
X60700Y22000D01*
X60656Y22738D01*
X60484Y23457D01*
X60201Y24140D01*
X59814Y24771D01*
X59334Y25334D01*
X58771Y25814D01*
X58140Y26201D01*
X57478Y26475D01*
Y78000D01*
X62061D01*
Y38345D01*
X62046Y38310D01*
X62009Y38157D01*
X62009Y38157D01*
X61997Y38000D01*
X62000Y37961D01*
Y32039D01*
X61997Y32000D01*
X62009Y31843D01*
Y31843D01*
X62016Y31813D01*
X62046Y31690D01*
X62061Y31655D01*
Y24560D01*
X61953Y24400D01*
X61756Y24030D01*
X61592Y23643D01*
X61463Y23244D01*
X61370Y22835D01*
X61314Y22419D01*
X61295Y22000D01*
X61314Y21581D01*
X61370Y21165D01*
X61463Y20756D01*
X61592Y20357D01*
X61756Y19970D01*
X61953Y19600D01*
X62061Y19436D01*
Y9000D01*
X57478D01*
Y17525D01*
G37*
G36*
Y225000D02*X62061D01*
Y154345D01*
X62046Y154310D01*
X62009Y154157D01*
X62009Y154157D01*
X61997Y154000D01*
X62000Y153961D01*
Y147039D01*
X61997Y147000D01*
X62009Y146843D01*
Y146843D01*
X62016Y146813D01*
X62046Y146690D01*
X62061Y146655D01*
Y136127D01*
X61888Y136062D01*
X61085Y135672D01*
X60321Y135211D01*
X59601Y134682D01*
X59543Y134628D01*
X59494Y134564D01*
X59455Y134494D01*
X59429Y134419D01*
X59414Y134340D01*
X59411Y134260D01*
X59422Y134180D01*
X59444Y134103D01*
X59479Y134031D01*
X59524Y133965D01*
X59579Y133907D01*
X59642Y133858D01*
X59713Y133819D01*
X59788Y133792D01*
X59867Y133778D01*
X59947Y133775D01*
X60027Y133786D01*
X60103Y133808D01*
X60176Y133843D01*
X60241Y133889D01*
X60881Y134370D01*
X61567Y134784D01*
X62061Y135024D01*
Y118976D01*
X61567Y119216D01*
X60881Y119630D01*
X60235Y120104D01*
X60171Y120150D01*
X60100Y120183D01*
X60025Y120205D01*
X59947Y120216D01*
X59868Y120213D01*
X59791Y120199D01*
X59717Y120172D01*
X59647Y120135D01*
X59585Y120087D01*
X59531Y120029D01*
X59487Y119965D01*
X59453Y119893D01*
X59431Y119818D01*
X59421Y119740D01*
X59423Y119661D01*
X59437Y119584D01*
X59464Y119510D01*
X59501Y119441D01*
X59549Y119378D01*
X59608Y119325D01*
X60321Y118789D01*
X61085Y118328D01*
X61888Y117938D01*
X62061Y117873D01*
Y80000D01*
X57478D01*
Y121701D01*
X57585Y121525D01*
X58113Y120806D01*
X58167Y120747D01*
X58231Y120699D01*
X58301Y120660D01*
X58377Y120633D01*
X58455Y120618D01*
X58536Y120616D01*
X58615Y120627D01*
X58692Y120649D01*
X58764Y120683D01*
X58830Y120729D01*
X58889Y120784D01*
X58938Y120847D01*
X58976Y120918D01*
X59003Y120993D01*
X59018Y121072D01*
X59020Y121152D01*
X59010Y121231D01*
X58987Y121308D01*
X58953Y121381D01*
X58906Y121446D01*
X58425Y122086D01*
X58011Y122772D01*
X57661Y123492D01*
X57478Y123975D01*
Y130025D01*
X57661Y130508D01*
X58011Y131228D01*
X58425Y131914D01*
X58899Y132560D01*
X58945Y132624D01*
X58979Y132695D01*
X59001Y132771D01*
X59011Y132849D01*
X59009Y132927D01*
X58994Y133005D01*
X58968Y133079D01*
X58930Y133148D01*
X58882Y133210D01*
X58825Y133264D01*
X58760Y133309D01*
X58689Y133342D01*
X58613Y133365D01*
X58535Y133375D01*
X58456Y133372D01*
X58379Y133358D01*
X58305Y133332D01*
X58236Y133294D01*
X58174Y133246D01*
X58121Y133188D01*
X57585Y132475D01*
X57478Y132299D01*
Y225000D01*
G37*
G36*
Y123975D02*X57377Y124242D01*
X57163Y125013D01*
X57018Y125802D01*
X56946Y126599D01*
Y127401D01*
X57018Y128198D01*
X57163Y128987D01*
X57377Y129758D01*
X57478Y130025D01*
Y123975D01*
G37*
G36*
Y26475D02*X57457Y26484D01*
X56738Y26656D01*
X56000Y26714D01*
X55262Y26656D01*
X54543Y26484D01*
X54000Y26259D01*
Y78000D01*
X57478D01*
Y26475D01*
G37*
G36*
X48000Y9000D02*Y225000D01*
X57478D01*
Y132299D01*
X57124Y131710D01*
X56734Y130908D01*
X56418Y130073D01*
X56178Y129213D01*
X56018Y128335D01*
X55937Y127446D01*
Y126554D01*
X56018Y125665D01*
X56178Y124787D01*
X56418Y123927D01*
X56734Y123092D01*
X57124Y122290D01*
X57478Y121701D01*
Y80000D01*
X54000D01*
Y199502D01*
X54061Y199539D01*
X54277Y199723D01*
X54461Y199939D01*
X54609Y200180D01*
X54717Y200442D01*
X54783Y200718D01*
X54800Y201000D01*
X54783Y201282D01*
X54717Y201558D01*
X54609Y201820D01*
X54461Y202061D01*
X54277Y202277D01*
X54061Y202461D01*
X53820Y202609D01*
X53558Y202717D01*
X53282Y202783D01*
X53000Y202806D01*
X52718Y202783D01*
X52442Y202717D01*
X52180Y202609D01*
X51939Y202461D01*
X51723Y202277D01*
X51539Y202061D01*
X51391Y201820D01*
X51283Y201558D01*
X51217Y201282D01*
X51194Y201000D01*
X51217Y200718D01*
X51283Y200442D01*
X51391Y200180D01*
X51539Y199939D01*
X51723Y199723D01*
X51939Y199539D01*
X52000Y199502D01*
Y79039D01*
X51997Y79000D01*
X52000Y78961D01*
Y25039D01*
X51997Y25000D01*
X52009Y24843D01*
Y24843D01*
X52016Y24813D01*
X52046Y24690D01*
X52082Y24602D01*
X51799Y24140D01*
X51516Y23457D01*
X51344Y22738D01*
X51286Y22000D01*
X51344Y21262D01*
X51516Y20543D01*
X51799Y19860D01*
X52186Y19229D01*
X52666Y18666D01*
X53229Y18186D01*
X53860Y17799D01*
X54543Y17516D01*
X55262Y17344D01*
X56000Y17286D01*
X56738Y17344D01*
X57457Y17516D01*
X57478Y17525D01*
Y9000D01*
X48000D01*
G37*
G54D35*X158000Y157000D02*X175000D01*
X156500Y182000D02*X158000Y180500D01*
Y152500D01*
X153500Y148000D01*
Y121000D01*
X148500Y153500D02*Y121000D01*
X96000Y187000D02*X110000D01*
X103000Y183000D02*X104500Y184500D01*
X102000Y183000D02*X100500Y184500D01*
X102000Y181000D02*X100500Y179500D01*
X103000Y181000D02*X104500Y179500D01*
X111000Y192000D02*X107559D01*
X103000Y193000D02*X104500Y194500D01*
X102000Y193000D02*X100500Y194500D01*
X102000Y191000D02*X100500Y189500D01*
X103000Y191000D02*X104500Y189500D01*
X111900Y191100D02*X111000Y192000D01*
X93000Y184000D02*X96000Y187000D01*
X93000Y156000D02*Y184000D01*
X112000Y189000D02*Y191100D01*
X110000Y187000D02*X112000Y189000D01*
X123600Y191100D02*X111900D01*
X162500Y57500D02*X158000Y53000D01*
X162500Y89500D02*Y57500D01*
X167000Y94000D02*X162500Y89500D01*
X167000Y101500D02*Y94000D01*
X197000Y118000D02*X160000D01*
X158500Y119500D01*
X155000D01*
X153500Y121000D02*X155000Y119500D01*
X148500Y121000D02*X150000Y119500D01*
X152000D01*
X153500Y118000D01*
Y108500D01*
X148500Y118000D02*Y93500D01*
X148000Y93000D01*
X153500Y108500D02*X155000Y107000D01*
X163500D01*
X164500D01*
X165000Y106500D01*
Y104500D01*
X167000Y101500D02*X170000Y104500D01*
X107559Y182000D02*X156500D01*
X145000Y155000D02*X147000D01*
X148500Y153500D01*
X113000Y116000D02*X128000D01*
X131500Y119500D01*
X147000D01*
X148500Y118000D01*
X123600Y102100D02*X107659D01*
X107559Y53000D02*X158000D01*
X107559Y93000D02*X148000D01*
X112000Y66000D02*Y62100D01*
Y62000D02*X107559D01*
X112100Y62100D02*X112000Y62000D01*
X122600Y62100D02*X112100D01*
X110000Y68000D02*X112000Y66000D01*
X101500Y115500D02*Y147500D01*
X53000Y201000D02*Y25000D01*
X65000Y156000D02*X71500D01*
X63000Y154000D02*X65000Y156000D01*
X63000Y147000D02*Y154000D01*
X66000Y144000D02*X63000Y147000D01*
X87000Y144000D02*X66000D01*
X89811Y141189D02*X87000Y144000D01*
X89811Y127000D02*Y141189D01*
X93000Y156000D02*X82500D01*
X101500Y147500D02*X93000Y156000D01*
X82500Y40000D02*X90000D01*
X82500Y79000D02*X93000D01*
X71500D02*X53000D01*
Y25000D02*X56000Y22000D01*
X63000Y38000D02*X65000Y40000D01*
X63000Y32000D02*Y38000D01*
X65000Y30000D02*X63000Y32000D01*
X65000Y40000D02*X71500D01*
X84000Y30000D02*X65000D01*
X86000Y28000D02*X84000Y30000D01*
X86000Y22000D02*Y28000D01*
X112000Y105000D02*Y102100D01*
X110000Y107000D02*X112000Y105000D01*
X93000Y107000D02*X110000D01*
X93000D02*X101500Y115500D01*
X103000Y103000D02*X104500Y104500D01*
X102000Y103000D02*X100500Y104500D01*
X103000Y94000D02*X104500Y95500D01*
X102000Y94000D02*X100500Y95500D01*
X102000Y92000D02*X100500Y90500D01*
X103000Y92000D02*X104500Y90500D01*
X93000Y68000D02*X110000D01*
X93000Y43000D02*Y107000D01*
X103000Y63000D02*X104500Y64500D01*
X102000Y63000D02*X100500Y64500D01*
X102000Y61000D02*X100500Y59500D01*
X103000Y61000D02*X104500Y59500D01*
X90000Y40000D02*X93000Y43000D01*
X103000Y54000D02*X104500Y55500D01*
X102000Y54000D02*X100500Y55500D01*
X102000Y52000D02*X100500Y50500D01*
X103000Y52000D02*X104500Y50500D01*
X102000Y101000D02*X100500Y99500D01*
X103000Y101000D02*X104500Y99500D01*
G54D36*X156000Y22000D03*
X146000D03*
X136000D03*
X126000D03*
X116000D03*
X106000D03*
X86000D03*
X76000D03*
X66000D03*
X56000D03*
G54D37*X183000Y50000D03*
X173000Y60000D03*
Y40000D03*
X193000Y60000D03*
Y40000D03*
G54D34*G36*
X152000Y216000D02*Y208000D01*
X160000D01*
Y216000D01*
X152000D01*
G37*
G54D36*X146000Y212000D03*
X136000D03*
X126000D03*
X116000D03*
X96000D03*
X86000D03*
G54D38*X65795Y127000D03*
X78000Y108102D03*
X89811Y127000D03*
G54D36*X106000Y212000D03*
G54D37*X183000Y186000D03*
X173000Y196000D03*
X193000D03*
X173000Y176000D03*
X193000D03*
G54D39*X148000Y97500D02*Y88500D01*
G54D40*X120300Y84000D02*X126900D01*
X120300Y93000D02*X126900D01*
X120300Y102100D02*X126900D01*
G54D41*X82500Y79600D02*Y78400D01*
X71500Y79600D02*Y78400D01*
G54D40*X119300Y44000D02*X125900D01*
X119300Y53000D02*X125900D01*
X119300Y62100D02*X125900D01*
G54D42*X102441Y53492D02*Y52508D01*
X107559Y53492D02*Y52508D01*
X102441Y62492D02*Y61508D01*
X107559Y62492D02*Y61508D01*
G54D41*X82500Y40600D02*Y39400D01*
X71500Y40600D02*Y39400D01*
G54D39*X147000Y57500D02*Y48500D01*
G54D42*X107559Y93492D02*Y92508D01*
Y102492D02*Y101508D01*
X102441Y182492D02*Y181508D01*
X107559Y182492D02*Y181508D01*
X102441Y192492D02*Y191508D01*
X107559Y192492D02*Y191508D01*
G54D40*X120300Y173000D02*X126900D01*
X120300Y182000D02*X126900D01*
X120300Y191100D02*X126900D01*
G54D39*X148000Y186500D02*Y177500D01*
G54D42*X102441Y93492D02*Y92508D01*
Y102492D02*Y101508D01*
G54D41*X82500Y156600D02*Y155400D01*
X71500Y156600D02*Y155400D01*
G54D43*X158000Y157000D03*
X145000Y155000D03*
X151000D03*
X53000Y201000D03*
X113000Y182000D03*
X111000Y202500D03*
X122000D03*
X139000Y155000D03*
X136000Y139500D03*
X133000Y155000D03*
X126000D03*
X122000Y163500D03*
X99000Y182000D03*
Y192000D03*
X148000Y93000D03*
X165000Y104500D03*
X161926Y93500D03*
Y98500D03*
X162500Y89500D03*
X170000Y104500D03*
X165500Y86500D03*
X135000Y83000D03*
X158000Y81500D03*
X197000Y118000D03*
X185000Y112000D03*
Y124000D03*
X193000Y132800D03*
Y104700D03*
X156000Y122000D03*
Y112000D03*
X151000D03*
X156000Y117000D03*
X151000D03*
X193000Y89000D03*
X171000Y89500D03*
X176500Y92500D03*
X193000Y148000D03*
X163000Y147000D03*
X169000Y141500D03*
X175000Y157000D03*
X171500Y153000D03*
X165500Y136500D03*
X112500Y45500D03*
X99000Y53000D03*
Y62000D03*
X122500Y45500D03*
X132500D03*
X135000Y73000D03*
Y63000D03*
X124500Y73000D03*
X83500Y55000D03*
X63500Y65000D03*
Y55000D03*
X83500Y65000D03*
X112000Y73000D03*
X113000Y116000D03*
X120000Y120000D03*
X118000Y126000D03*
X146000Y112000D03*
Y122000D03*
Y117000D03*
X151000Y122000D03*
X113000Y93000D03*
X115000Y98000D03*
Y105000D03*
X99000Y93000D03*
Y102000D03*
X112000Y83000D03*
G54D36*X156000Y22000D03*
X146000D03*
X136000D03*
X126000D03*
X116000D03*
X106000D03*
X86000D03*
X76000D03*
X66000D03*
X56000D03*
G54D37*X183000Y50000D03*
X173000Y60000D03*
Y40000D03*
X193000Y60000D03*
Y40000D03*
G54D34*G36*
X152000Y216000D02*Y208000D01*
X160000D01*
Y216000D01*
X152000D01*
G37*
G54D36*X146000Y212000D03*
X136000D03*
X126000D03*
X116000D03*
X96000D03*
X86000D03*
G54D38*X65795Y127000D03*
X78000Y108102D03*
X89811Y127000D03*
G54D36*X106000Y212000D03*
G54D37*X183000Y186000D03*
X173000Y196000D03*
X193000D03*
X173000Y176000D03*
X193000D03*
G54D39*X148000Y97500D02*Y88500D01*
G54D40*X120300Y84000D02*X126900D01*
X120300Y93000D02*X126900D01*
X120300Y102100D02*X126900D01*
G54D41*X82500Y79600D02*Y78400D01*
X71500Y79600D02*Y78400D01*
G54D40*X119300Y44000D02*X125900D01*
X119300Y53000D02*X125900D01*
X119300Y62100D02*X125900D01*
G54D42*X102441Y53492D02*Y52508D01*
X107559Y53492D02*Y52508D01*
X102441Y62492D02*Y61508D01*
X107559Y62492D02*Y61508D01*
G54D41*X82500Y40600D02*Y39400D01*
X71500Y40600D02*Y39400D01*
G54D39*X147000Y57500D02*Y48500D01*
G54D42*X107559Y93492D02*Y92508D01*
Y102492D02*Y101508D01*
X102441Y182492D02*Y181508D01*
X107559Y182492D02*Y181508D01*
X102441Y192492D02*Y191508D01*
X107559Y192492D02*Y191508D01*
G54D40*X120300Y173000D02*X126900D01*
X120300Y182000D02*X126900D01*
X120300Y191100D02*X126900D01*
G54D39*X148000Y186500D02*Y177500D01*
G54D42*X102441Y93492D02*Y92508D01*
Y102492D02*Y101508D01*
G54D41*X82500Y156600D02*Y155400D01*
X71500Y156600D02*Y155400D01*
G54D43*X158000Y157000D03*
X145000Y155000D03*
X151000D03*
X53000Y201000D03*
X113000Y182000D03*
X111000Y202500D03*
X122000D03*
X139000Y155000D03*
X136000Y139500D03*
X133000Y155000D03*
X126000D03*
X122000Y163500D03*
X99000Y182000D03*
Y192000D03*
X148000Y93000D03*
X165000Y104500D03*
X161926Y93500D03*
Y98500D03*
X162500Y89500D03*
X170000Y104500D03*
X165500Y86500D03*
X135000Y83000D03*
X158000Y81500D03*
X197000Y118000D03*
X185000Y112000D03*
Y124000D03*
X193000Y132800D03*
Y104700D03*
X156000Y122000D03*
Y112000D03*
X151000D03*
X156000Y117000D03*
X151000D03*
X193000Y89000D03*
X171000Y89500D03*
X176500Y92500D03*
X193000Y148000D03*
X163000Y147000D03*
X169000Y141500D03*
X175000Y157000D03*
X171500Y153000D03*
X165500Y136500D03*
X112500Y45500D03*
X99000Y53000D03*
Y62000D03*
X122500Y45500D03*
X132500D03*
X135000Y73000D03*
Y63000D03*
X124500Y73000D03*
X83500Y55000D03*
X63500Y65000D03*
Y55000D03*
X83500Y65000D03*
X112000Y73000D03*
X113000Y116000D03*
X120000Y120000D03*
X118000Y126000D03*
X146000Y112000D03*
Y122000D03*
Y117000D03*
X151000Y122000D03*
X113000Y93000D03*
X115000Y98000D03*
Y105000D03*
X99000Y93000D03*
Y102000D03*
X112000Y83000D03*
G54D30*G54D31*G54D30*G54D32*G54D30*G54D31*G54D33*M02*
