G04 start of page 9 for group -4078 idx -4078 *
G04 Title: (unknown), bottomsilk *
G04 Creator: pcb 1.99z *
G04 CreationDate: Sun 31 May 2020 07:54:01 PM GMT UTC *
G04 For: mark *
G04 Format: Gerber/RS-274X *
G04 PCB-Dimensions (mil): 2200.00 2300.00 *
G04 PCB-Coordinate-Origin: lower left *
%MOIN*%
%FSLAX25Y25*%
%LNBOTTOMSILK*%
%ADD80C,0.0060*%
%ADD79C,0.0200*%
%ADD78C,0.0100*%
G54D78*X114100Y38800D02*X155500D01*
X114100D02*Y67300D01*
X155500D01*
Y38800D02*Y67300D01*
G54D79*X88000Y44000D02*Y36000D01*
G54D78*X84600Y34900D01*
X67000D02*X84600D01*
X67000Y45100D02*Y34900D01*
Y45100D02*X84600D01*
X88000Y44000D01*
G54D79*Y83000D02*Y75000D01*
G54D78*X84600Y73900D01*
X67000D02*X84600D01*
X67000Y84100D02*Y73900D01*
Y84100D02*X84600D01*
X88000Y83000D01*
G54D79*Y160000D02*Y152000D01*
G54D78*X84600Y150900D01*
X67000D02*X84600D01*
X67000Y161100D02*Y150900D01*
Y161100D02*X84600D01*
X88000Y160000D01*
X115100Y167800D02*X156500D01*
X115100D02*Y196300D01*
X156500D01*
Y167800D02*Y196300D01*
X115100Y78800D02*X156500D01*
X115100D02*Y107300D01*
X156500D01*
Y78800D02*Y107300D01*
G54D80*X91851Y183850D02*X92891D01*
X91291Y183290D02*X91851Y183850D01*
X91291Y181210D02*Y183290D01*
Y181210D02*X91851Y180650D01*
X92891D01*
X93851Y181050D02*X94251Y180650D01*
X95451D01*
X95851Y181050D01*
Y181850D01*
X93851Y183850D02*X95851Y181850D01*
X93851Y183850D02*X95851D01*
X98011Y180650D02*X98411Y181050D01*
X97211Y180650D02*X98011D01*
X96811Y181050D02*X97211Y180650D01*
X96811Y181050D02*Y183450D01*
X97211Y183850D01*
X98011Y182090D02*X98411Y182490D01*
X96811Y182090D02*X98011D01*
X97211Y183850D02*X98011D01*
X98411Y183450D01*
Y182490D02*Y183450D01*
X91410Y193850D02*X92450D01*
X90850Y193290D02*X91410Y193850D01*
X90850Y191210D02*Y193290D01*
Y191210D02*X91410Y190650D01*
X92450D01*
X93410Y191050D02*X93810Y190650D01*
X95010D01*
X95410Y191050D01*
Y191850D01*
X93410Y193850D02*X95410Y191850D01*
X93410Y193850D02*X95410D01*
X96370Y190650D02*X97970D01*
X96370D02*Y192250D01*
X96770Y191850D01*
X97570D01*
X97970Y192250D01*
Y193450D01*
X97570Y193850D02*X97970Y193450D01*
X96770Y193850D02*X97570D01*
X96370Y193450D02*X96770Y193850D01*
X71400Y164800D02*Y168000D01*
X72440Y164800D02*X73000Y165360D01*
Y167440D01*
X72440Y168000D02*X73000Y167440D01*
X71000Y168000D02*X72440D01*
X71000Y164800D02*X72440D01*
X73960Y166800D02*X75560Y164800D01*
X73960Y166800D02*X75960D01*
X75560Y164800D02*Y168000D01*
X91410Y94850D02*X92450D01*
X90850Y94290D02*X91410Y94850D01*
X90850Y92210D02*Y94290D01*
Y92210D02*X91410Y91650D01*
X92450D01*
X93410Y92050D02*X93810Y91650D01*
X95010D01*
X95410Y92050D01*
Y92850D01*
X93410Y94850D02*X95410Y92850D01*
X93410Y94850D02*X95410D01*
X96370Y94450D02*X96770Y94850D01*
X96370Y93810D02*Y94450D01*
Y93810D02*X96930Y93250D01*
X97410D01*
X97970Y93810D01*
Y94450D01*
X97570Y94850D02*X97970Y94450D01*
X96770Y94850D02*X97570D01*
X96370Y92690D02*X96930Y93250D01*
X96370Y92050D02*Y92690D01*
Y92050D02*X96770Y91650D01*
X97570D01*
X97970Y92050D01*
Y92690D01*
X97410Y93250D02*X97970Y92690D01*
X92410Y103850D02*X93450D01*
X91850Y103290D02*X92410Y103850D01*
X91850Y101210D02*Y103290D01*
Y101210D02*X92410Y100650D01*
X93450D01*
X94410Y101050D02*X94810Y100650D01*
X96010D01*
X96410Y101050D01*
Y101850D01*
X94410Y103850D02*X96410Y101850D01*
X94410Y103850D02*X96410D01*
X97770D02*X99370Y100650D01*
X97370D02*X99370D01*
X151000Y33500D02*Y36300D01*
X151400Y36700D01*
X152200D01*
X152600Y36300D01*
Y33500D02*Y36300D01*
X153560Y33500D02*X155160D01*
X153560D02*Y35100D01*
X153960Y34700D01*
X154760D01*
X155160Y35100D01*
Y36300D01*
X154760Y36700D02*X155160Y36300D01*
X153960Y36700D02*X154760D01*
X153560Y36300D02*X153960Y36700D01*
X151500Y73500D02*Y76300D01*
X151900Y76700D01*
X152700D01*
X153100Y76300D01*
Y73500D02*Y76300D01*
X154060Y75500D02*X155660Y73500D01*
X154060Y75500D02*X156060D01*
X155660Y73500D02*Y76700D01*
X71400Y46800D02*Y50000D01*
X72440Y46800D02*X73000Y47360D01*
Y49440D01*
X72440Y50000D02*X73000Y49440D01*
X71000Y50000D02*X72440D01*
X71000Y46800D02*X72440D01*
X73960Y47200D02*X74360Y46800D01*
X75160D01*
X75560Y47200D01*
X75160Y50000D02*X75560Y49600D01*
X74360Y50000D02*X75160D01*
X73960Y49600D02*X74360Y50000D01*
Y48240D02*X75160D01*
X75560Y47200D02*Y47840D01*
Y48640D02*Y49600D01*
Y48640D02*X75160Y48240D01*
X75560Y47840D02*X75160Y48240D01*
X70900Y86300D02*Y89500D01*
X71940Y86300D02*X72500Y86860D01*
Y88940D01*
X71940Y89500D02*X72500Y88940D01*
X70500Y89500D02*X71940D01*
X70500Y86300D02*X71940D01*
X73460Y86700D02*X73860Y86300D01*
X75060D01*
X75460Y86700D01*
Y87500D01*
X73460Y89500D02*X75460Y87500D01*
X73460Y89500D02*X75460D01*
X91410Y54850D02*X92450D01*
X90850Y54290D02*X91410Y54850D01*
X90850Y52210D02*Y54290D01*
Y52210D02*X91410Y51650D01*
X92450D01*
X93410Y52050D02*X93810Y51650D01*
X94610D01*
X95010Y52050D01*
X94610Y54850D02*X95010Y54450D01*
X93810Y54850D02*X94610D01*
X93410Y54450D02*X93810Y54850D01*
Y53090D02*X94610D01*
X95010Y52050D02*Y52690D01*
Y53490D02*Y54450D01*
Y53490D02*X94610Y53090D01*
X95010Y52690D02*X94610Y53090D01*
X95970Y54450D02*X96370Y54850D01*
X95970Y52050D02*Y54450D01*
Y52050D02*X96370Y51650D01*
X97170D01*
X97570Y52050D01*
Y54450D01*
X97170Y54850D02*X97570Y54450D01*
X96370Y54850D02*X97170D01*
X95970Y54050D02*X97570Y52450D01*
X91410Y63850D02*X92450D01*
X90850Y63290D02*X91410Y63850D01*
X90850Y61210D02*Y63290D01*
Y61210D02*X91410Y60650D01*
X92450D01*
X93410Y61050D02*X93810Y60650D01*
X95010D01*
X95410Y61050D01*
Y61850D01*
X93410Y63850D02*X95410Y61850D01*
X93410Y63850D02*X95410D01*
X96770D02*X97970Y62250D01*
Y61050D02*Y62250D01*
X97570Y60650D02*X97970Y61050D01*
X96770Y60650D02*X97570D01*
X96370Y61050D02*X96770Y60650D01*
X96370Y61050D02*Y61850D01*
X96770Y62250D01*
X97970D01*
X151500Y162500D02*Y165300D01*
X151900Y165700D01*
X152700D01*
X153100Y165300D01*
Y162500D02*Y165300D01*
X154060Y162900D02*X154460Y162500D01*
X155260D01*
X155660Y162900D01*
X155260Y165700D02*X155660Y165300D01*
X154460Y165700D02*X155260D01*
X154060Y165300D02*X154460Y165700D01*
Y163940D02*X155260D01*
X155660Y162900D02*Y163540D01*
Y164340D02*Y165300D01*
Y164340D02*X155260Y163940D01*
X155660Y163540D02*X155260Y163940D01*
M02*
